<svg width="653" height="237" viewBox="0 0 653 237" fill="none" xmlns="http://www.w3.org/2000/svg">
<path d="M11.468 145.362C7.18288 146.481 2.77529 143.906 1.96759 139.551C-6.85137 92.0065 14.3244 41.9491 58.4757 16.1438C104.801 -10.9322 161.977 -2.86675 199.086 32.2322L208.255 22.5295C210.469 20.1864 214.403 21.291 215.075 24.4442L224.927 70.7379C225.51 73.4763 223.171 75.9508 220.404 75.5238L173.628 68.3041C170.442 67.8124 169.116 63.9467 171.331 61.6036L180.458 51.9449C151.876 24.9113 107.838 18.6992 72.158 39.5534C38.7265 59.0933 22.3984 96.6867 28.3103 132.746C29.0228 137.092 26.4998 141.439 22.2384 142.551L11.468 145.362Z" fill="#CBD5E1"/>
<path d="M55.5803 184.093C84.1623 211.127 128.2 217.339 163.88 196.485C197.102 177.067 213.435 139.822 207.836 103.97C207.156 99.6129 209.72 95.281 213.997 94.2067L224.789 91.4961C229.08 90.4183 233.46 93.028 234.233 97.3844C242.622 144.66 221.436 194.251 177.563 219.894C131.237 246.97 74.0614 238.905 36.9521 203.806L27.7833 213.509C25.5691 215.852 21.6347 214.747 20.9637 211.594L11.1113 165.3C10.5285 162.562 12.8668 160.087 15.6338 160.514L62.4104 167.734C65.5965 168.226 66.9218 172.092 64.7076 174.435L55.5803 184.093Z" fill="#CBD5E1"/>
<path d="M111.234 154.22L170.163 95.19C173.285 92.0633 173.28 86.9982 170.154 83.8766L164.176 77.9081C161.051 74.7882 155.989 74.7902 152.867 77.9126L107.249 123.53C105.687 125.092 103.155 125.092 101.593 123.53L81.7819 103.719C78.6558 100.593 73.5868 100.595 70.4634 103.724L65.566 108.63C62.4445 111.757 62.4488 116.822 65.5757 119.943L99.9202 154.229C103.047 157.351 108.112 157.347 111.234 154.22Z" fill="#CBD5E1"/>
<path d="M318.133 33.7691H308.178C307.996 32.4813 307.625 31.3373 307.065 30.3373C306.504 29.3222 305.784 28.4585 304.905 27.7464C304.027 27.0343 303.012 26.4888 301.86 26.11C300.724 25.7313 299.489 25.5419 298.155 25.5419C295.746 25.5419 293.648 26.1403 291.86 27.3373C290.072 28.5191 288.686 30.2464 287.701 32.5191C286.716 34.7767 286.224 37.5191 286.224 40.7464C286.224 44.0646 286.716 46.8525 287.701 49.11C288.701 51.3676 290.095 53.0722 291.883 54.2237C293.671 55.3752 295.739 55.951 298.087 55.951C299.405 55.951 300.625 55.7767 301.746 55.4282C302.883 55.0797 303.89 54.5722 304.769 53.9055C305.648 53.2237 306.375 52.3979 306.951 51.4282C307.542 50.4585 307.951 49.3525 308.178 48.11L318.133 48.1555C317.875 50.2919 317.231 52.3525 316.201 54.3373C315.186 56.307 313.815 58.0722 312.087 59.6328C310.375 61.1782 308.33 62.4055 305.951 63.3146C303.587 64.2085 300.913 64.6555 297.928 64.6555C293.777 64.6555 290.065 63.7161 286.792 61.8373C283.534 59.9585 280.958 57.2388 279.065 53.6782C277.186 50.1176 276.246 45.807 276.246 40.7464C276.246 35.6706 277.201 31.3525 279.11 27.7919C281.019 24.2313 283.61 21.5191 286.883 19.6555C290.155 17.7767 293.837 16.8373 297.928 16.8373C300.625 16.8373 303.125 17.2161 305.428 17.9737C307.746 18.7313 309.799 19.8373 311.587 21.2919C313.375 22.7313 314.83 24.4964 315.951 26.5873C317.087 28.6782 317.815 31.0722 318.133 33.7691ZM340.78 64.701C337.25 64.701 334.197 63.951 331.621 62.451C329.061 60.9358 327.083 58.8297 325.69 56.1328C324.296 53.4206 323.599 50.2767 323.599 46.701C323.599 43.0949 324.296 39.9434 325.69 37.2464C327.083 34.5343 329.061 32.4282 331.621 30.9282C334.197 29.4131 337.25 28.6555 340.78 28.6555C344.311 28.6555 347.356 29.4131 349.917 30.9282C352.493 32.4282 354.477 34.5343 355.871 37.2464C357.265 39.9434 357.962 43.0949 357.962 46.701C357.962 50.2767 357.265 53.4206 355.871 56.1328C354.477 58.8297 352.493 60.9358 349.917 62.451C347.356 63.951 344.311 64.701 340.78 64.701ZM340.826 57.201C342.432 57.201 343.773 56.7464 344.849 55.8373C345.924 54.9131 346.735 53.6555 347.28 52.0646C347.841 50.4737 348.121 48.6631 348.121 46.6328C348.121 44.6025 347.841 42.7919 347.28 41.201C346.735 39.61 345.924 38.3525 344.849 37.4282C343.773 36.504 342.432 36.0419 340.826 36.0419C339.205 36.0419 337.841 36.504 336.735 37.4282C335.644 38.3525 334.818 39.61 334.258 41.201C333.712 42.7919 333.44 44.6025 333.44 46.6328C333.44 48.6631 333.712 50.4737 334.258 52.0646C334.818 53.6555 335.644 54.9131 336.735 55.8373C337.841 56.7464 339.205 57.201 340.826 57.201ZM373.94 43.8373V64.0191H364.258V29.11H373.485V35.2691H373.894C374.667 33.2388 375.962 31.6328 377.78 30.451C379.599 29.254 381.803 28.6555 384.394 28.6555C386.818 28.6555 388.932 29.1858 390.735 30.2464C392.538 31.307 393.94 32.8222 394.94 34.7919C395.94 36.7464 396.44 39.0797 396.44 41.7919V64.0191H386.758V43.5191C386.773 41.3828 386.227 39.7161 385.121 38.5191C384.015 37.307 382.493 36.701 380.553 36.701C379.25 36.701 378.099 36.9813 377.099 37.5419C376.114 38.1025 375.341 38.9206 374.78 39.9964C374.235 41.057 373.955 42.3373 373.94 43.8373ZM422.638 29.11V36.3828H401.616V29.11H422.638ZM406.388 20.7464H416.07V53.2919C416.07 54.1858 416.207 54.8828 416.479 55.3828C416.752 55.8676 417.131 56.2085 417.616 56.4055C418.116 56.6025 418.691 56.701 419.343 56.701C419.798 56.701 420.252 56.6631 420.707 56.5873C421.161 56.4964 421.51 56.4282 421.752 56.3828L423.275 63.5873C422.79 63.7388 422.108 63.9131 421.229 64.11C420.351 64.3222 419.282 64.451 418.025 64.4964C415.691 64.5873 413.646 64.2767 411.888 63.5646C410.146 62.8525 408.79 61.7464 407.82 60.2464C406.851 58.7464 406.373 56.8525 406.388 54.5646V20.7464ZM428.945 64.0191V29.11H438.627V64.0191H428.945ZM433.809 24.61C432.369 24.61 431.135 24.1328 430.104 23.1782C429.089 22.2085 428.582 21.0494 428.582 19.701C428.582 18.3676 429.089 17.2237 430.104 16.2691C431.135 15.2994 432.369 14.8146 433.809 14.8146C435.248 14.8146 436.476 15.2994 437.491 16.2691C438.521 17.2237 439.036 18.3676 439.036 19.701C439.036 21.0494 438.521 22.2085 437.491 23.1782C436.476 24.1328 435.248 24.61 433.809 24.61ZM456.065 43.8373V64.0191H446.383V29.11H455.61V35.2691H456.019C456.792 33.2388 458.087 31.6328 459.905 30.451C461.724 29.254 463.928 28.6555 466.519 28.6555C468.943 28.6555 471.057 29.1858 472.86 30.2464C474.663 31.307 476.065 32.8222 477.065 34.7919C478.065 36.7464 478.565 39.0797 478.565 41.7919V64.0191H468.883V43.5191C468.898 41.3828 468.352 39.7161 467.246 38.5191C466.14 37.307 464.618 36.701 462.678 36.701C461.375 36.701 460.224 36.9813 459.224 37.5419C458.239 38.1025 457.466 38.9206 456.905 39.9964C456.36 41.057 456.08 42.3373 456.065 43.8373ZM508.582 49.1555V29.11H518.263V64.0191H508.968V57.6782H508.604C507.816 59.7237 506.506 61.3676 504.673 62.61C502.854 63.8525 500.635 64.4737 498.013 64.4737C495.68 64.4737 493.627 63.9434 491.854 62.8828C490.082 61.8222 488.695 60.3146 487.695 58.36C486.71 56.4055 486.21 54.0646 486.195 51.3373V29.11H495.877V49.61C495.892 51.6706 496.445 53.2994 497.536 54.4964C498.627 55.6934 500.089 56.2919 501.923 56.2919C503.089 56.2919 504.18 56.0267 505.195 55.4964C506.21 54.951 507.029 54.1479 507.65 53.0873C508.286 52.0267 508.597 50.7161 508.582 49.1555ZM541.78 64.701C538.25 64.701 535.197 63.951 532.621 62.451C530.061 60.9358 528.083 58.8297 526.69 56.1328C525.296 53.4206 524.599 50.2767 524.599 46.701C524.599 43.0949 525.296 39.9434 526.69 37.2464C528.083 34.5343 530.061 32.4282 532.621 30.9282C535.197 29.4131 538.25 28.6555 541.78 28.6555C545.311 28.6555 548.356 29.4131 550.917 30.9282C553.493 32.4282 555.477 34.5343 556.871 37.2464C558.265 39.9434 558.962 43.0949 558.962 46.701C558.962 50.2767 558.265 53.4206 556.871 56.1328C555.477 58.8297 553.493 60.9358 550.917 62.451C548.356 63.951 545.311 64.701 541.78 64.701ZM541.826 57.201C543.432 57.201 544.773 56.7464 545.849 55.8373C546.924 54.9131 547.735 53.6555 548.28 52.0646C548.841 50.4737 549.121 48.6631 549.121 46.6328C549.121 44.6025 548.841 42.7919 548.28 41.201C547.735 39.61 546.924 38.3525 545.849 37.4282C544.773 36.504 543.432 36.0419 541.826 36.0419C540.205 36.0419 538.841 36.504 537.735 37.4282C536.644 38.3525 535.818 39.61 535.258 41.201C534.712 42.7919 534.44 44.6025 534.44 46.6328C534.44 48.6631 534.712 50.4737 535.258 52.0646C535.818 53.6555 536.644 54.9131 537.735 55.8373C538.841 56.7464 540.205 57.201 541.826 57.201ZM587.644 49.1555V29.11H597.326V64.0191H588.03V57.6782H587.667C586.879 59.7237 585.568 61.3676 583.735 62.61C581.917 63.8525 579.697 64.4737 577.076 64.4737C574.743 64.4737 572.69 63.9434 570.917 62.8828C569.144 61.8222 567.758 60.3146 566.758 58.36C565.773 56.4055 565.273 54.0646 565.258 51.3373V29.11H574.94V49.61C574.955 51.6706 575.508 53.2994 576.599 54.4964C577.69 55.6934 579.152 56.2919 580.985 56.2919C582.152 56.2919 583.243 56.0267 584.258 55.4964C585.273 54.951 586.091 54.1479 586.712 53.0873C587.349 52.0267 587.659 50.7161 587.644 49.1555ZM634.116 39.0646L625.252 39.61C625.101 38.8525 624.775 38.1706 624.275 37.5646C623.775 36.9434 623.116 36.451 622.298 36.0873C621.494 35.7085 620.532 35.5191 619.411 35.5191C617.911 35.5191 616.646 35.8373 615.616 36.4737C614.585 37.0949 614.07 37.9282 614.07 38.9737C614.07 39.807 614.404 40.5116 615.07 41.0873C615.737 41.6631 616.881 42.1252 618.502 42.4737L624.82 43.7464C628.214 44.4434 630.744 45.5646 632.411 47.11C634.078 48.6555 634.911 50.6858 634.911 53.201C634.911 55.4888 634.237 57.4964 632.888 59.2237C631.555 60.951 629.722 62.2994 627.388 63.2691C625.07 64.2237 622.396 64.701 619.366 64.701C614.744 64.701 611.063 63.7388 608.32 61.8146C605.593 59.8752 603.994 57.2388 603.525 53.9055L613.048 53.4055C613.335 54.8146 614.032 55.8903 615.138 56.6328C616.244 57.36 617.661 57.7237 619.388 57.7237C621.085 57.7237 622.449 57.3979 623.479 56.7464C624.525 56.0797 625.055 55.2237 625.07 54.1782C625.055 53.2994 624.684 52.5797 623.957 52.0191C623.229 51.4434 622.108 51.004 620.593 50.701L614.548 49.4964C611.138 48.8146 608.601 47.6328 606.934 45.951C605.282 44.2691 604.457 42.1252 604.457 39.5191C604.457 37.2767 605.063 35.3449 606.275 33.7237C607.502 32.1025 609.222 30.8525 611.434 29.9737C613.661 29.0949 616.267 28.6555 619.252 28.6555C623.661 28.6555 627.131 29.5873 629.661 31.451C632.207 33.3146 633.691 35.8525 634.116 39.0646ZM318.133 110.769H308.178C307.996 109.481 307.625 108.337 307.065 107.337C306.504 106.322 305.784 105.459 304.905 104.746C304.027 104.034 303.012 103.489 301.86 103.11C300.724 102.731 299.489 102.542 298.155 102.542C295.746 102.542 293.648 103.14 291.86 104.337C290.072 105.519 288.686 107.246 287.701 109.519C286.716 111.777 286.224 114.519 286.224 117.746C286.224 121.065 286.716 123.852 287.701 126.11C288.701 128.368 290.095 130.072 291.883 131.224C293.671 132.375 295.739 132.951 298.087 132.951C299.405 132.951 300.625 132.777 301.746 132.428C302.883 132.08 303.89 131.572 304.769 130.905C305.648 130.224 306.375 129.398 306.951 128.428C307.542 127.459 307.951 126.352 308.178 125.11L318.133 125.155C317.875 127.292 317.231 129.352 316.201 131.337C315.186 133.307 313.815 135.072 312.087 136.633C310.375 138.178 308.33 139.405 305.951 140.315C303.587 141.209 300.913 141.655 297.928 141.655C293.777 141.655 290.065 140.716 286.792 138.837C283.534 136.959 280.958 134.239 279.065 130.678C277.186 127.118 276.246 122.807 276.246 117.746C276.246 112.671 277.201 108.352 279.11 104.792C281.019 101.231 283.61 98.5191 286.883 96.6555C290.155 94.7767 293.837 93.8373 297.928 93.8373C300.625 93.8373 303.125 94.2161 305.428 94.9737C307.746 95.7313 309.799 96.8373 311.587 98.2919C313.375 99.7313 314.83 101.496 315.951 103.587C317.087 105.678 317.815 108.072 318.133 110.769ZM340.78 141.701C337.25 141.701 334.197 140.951 331.621 139.451C329.061 137.936 327.083 135.83 325.69 133.133C324.296 130.421 323.599 127.277 323.599 123.701C323.599 120.095 324.296 116.943 325.69 114.246C327.083 111.534 329.061 109.428 331.621 107.928C334.197 106.413 337.25 105.655 340.78 105.655C344.311 105.655 347.356 106.413 349.917 107.928C352.493 109.428 354.477 111.534 355.871 114.246C357.265 116.943 357.962 120.095 357.962 123.701C357.962 127.277 357.265 130.421 355.871 133.133C354.477 135.83 352.493 137.936 349.917 139.451C347.356 140.951 344.311 141.701 340.78 141.701ZM340.826 134.201C342.432 134.201 343.773 133.746 344.849 132.837C345.924 131.913 346.735 130.655 347.28 129.065C347.841 127.474 348.121 125.663 348.121 123.633C348.121 121.602 347.841 119.792 347.28 118.201C346.735 116.61 345.924 115.352 344.849 114.428C343.773 113.504 342.432 113.042 340.826 113.042C339.205 113.042 337.841 113.504 336.735 114.428C335.644 115.352 334.818 116.61 334.258 118.201C333.712 119.792 333.44 121.602 333.44 123.633C333.44 125.663 333.712 127.474 334.258 129.065C334.818 130.655 335.644 131.913 336.735 132.837C337.841 133.746 339.205 134.201 340.826 134.201ZM364.258 141.019V106.11H373.485V112.269H373.894C374.621 110.224 375.833 108.61 377.53 107.428C379.227 106.246 381.258 105.655 383.621 105.655C386.015 105.655 388.053 106.254 389.735 107.451C391.417 108.633 392.538 110.239 393.099 112.269H393.462C394.174 110.269 395.462 108.671 397.326 107.474C399.205 106.262 401.424 105.655 403.985 105.655C407.243 105.655 409.887 106.693 411.917 108.769C413.962 110.83 414.985 113.754 414.985 117.542V141.019H405.326V119.451C405.326 117.512 404.811 116.057 403.78 115.087C402.75 114.118 401.462 113.633 399.917 113.633C398.159 113.633 396.788 114.193 395.803 115.315C394.818 116.421 394.326 117.883 394.326 119.701V141.019H384.94V119.246C384.94 117.534 384.447 116.171 383.462 115.155C382.493 114.14 381.212 113.633 379.621 113.633C378.546 113.633 377.576 113.905 376.712 114.451C375.864 114.981 375.19 115.731 374.69 116.701C374.19 117.655 373.94 118.777 373.94 120.065V141.019H364.258ZM422.633 154.11V106.11H432.178V111.974H432.61C433.034 111.034 433.648 110.08 434.451 109.11C435.269 108.125 436.33 107.307 437.633 106.655C438.951 105.989 440.587 105.655 442.542 105.655C445.087 105.655 447.436 106.322 449.587 107.655C451.739 108.974 453.458 110.966 454.746 113.633C456.034 116.284 456.678 119.61 456.678 123.61C456.678 127.504 456.049 130.792 454.792 133.474C453.549 136.14 451.852 138.163 449.701 139.542C447.565 140.905 445.171 141.587 442.519 141.587C440.64 141.587 439.042 141.277 437.724 140.655C436.421 140.034 435.352 139.254 434.519 138.315C433.686 137.36 433.049 136.398 432.61 135.428H432.315V154.11H422.633ZM432.11 123.565C432.11 125.64 432.398 127.451 432.974 128.996C433.549 130.542 434.383 131.746 435.474 132.61C436.565 133.459 437.89 133.883 439.451 133.883C441.027 133.883 442.36 133.451 443.451 132.587C444.542 131.709 445.368 130.496 445.928 128.951C446.504 127.39 446.792 125.595 446.792 123.565C446.792 121.549 446.512 119.777 445.951 118.246C445.39 116.716 444.565 115.519 443.474 114.655C442.383 113.792 441.042 113.36 439.451 113.36C437.875 113.36 436.542 113.777 435.451 114.61C434.375 115.443 433.549 116.625 432.974 118.155C432.398 119.686 432.11 121.489 432.11 123.565ZM472.815 94.4737V141.019H463.133V94.4737H472.815ZM480.57 141.019V106.11H490.252V141.019H480.57ZM485.434 101.61C483.994 101.61 482.76 101.133 481.729 100.178C480.714 99.2085 480.207 98.0494 480.207 96.701C480.207 95.3676 480.714 94.2237 481.729 93.2691C482.76 92.2994 483.994 91.8146 485.434 91.8146C486.873 91.8146 488.101 92.2994 489.116 93.2691C490.146 94.2237 490.661 95.3676 490.661 96.701C490.661 98.0494 490.146 99.2085 489.116 100.178C488.101 101.133 486.873 101.61 485.434 101.61ZM507.962 141.678C505.735 141.678 503.75 141.292 502.008 140.519C500.265 139.731 498.887 138.572 497.871 137.042C496.871 135.496 496.371 133.572 496.371 131.269C496.371 129.33 496.727 127.701 497.44 126.383C498.152 125.065 499.121 124.004 500.349 123.201C501.576 122.398 502.97 121.792 504.53 121.383C506.106 120.974 507.758 120.686 509.485 120.519C511.515 120.307 513.152 120.11 514.394 119.928C515.637 119.731 516.538 119.443 517.099 119.065C517.659 118.686 517.94 118.125 517.94 117.383V117.246C517.94 115.807 517.485 114.693 516.576 113.905C515.682 113.118 514.409 112.724 512.758 112.724C511.015 112.724 509.629 113.11 508.599 113.883C507.568 114.64 506.887 115.595 506.553 116.746L497.599 116.019C498.053 113.898 498.947 112.065 500.28 110.519C501.614 108.959 503.333 107.762 505.44 106.928C507.561 106.08 510.015 105.655 512.803 105.655C514.743 105.655 516.599 105.883 518.371 106.337C520.159 106.792 521.743 107.496 523.121 108.451C524.515 109.405 525.614 110.633 526.417 112.133C527.22 113.618 527.621 115.398 527.621 117.474V141.019H518.44V136.178H518.167C517.606 137.269 516.856 138.231 515.917 139.065C514.977 139.883 513.849 140.527 512.53 140.996C511.212 141.451 509.69 141.678 507.962 141.678ZM510.735 134.996C512.159 134.996 513.417 134.716 514.508 134.155C515.599 133.58 516.455 132.807 517.076 131.837C517.697 130.868 518.008 129.769 518.008 128.542V124.837C517.705 125.034 517.288 125.216 516.758 125.383C516.243 125.534 515.659 125.678 515.008 125.815C514.356 125.936 513.705 126.049 513.053 126.155C512.402 126.246 511.811 126.33 511.28 126.405C510.144 126.572 509.152 126.837 508.303 127.201C507.455 127.565 506.796 128.057 506.326 128.678C505.856 129.284 505.621 130.042 505.621 130.951C505.621 132.269 506.099 133.277 507.053 133.974C508.023 134.655 509.25 134.996 510.735 134.996ZM544.815 120.837V141.019H535.133V106.11H544.36V112.269H544.769C545.542 110.239 546.837 108.633 548.655 107.451C550.474 106.254 552.678 105.655 555.269 105.655C557.693 105.655 559.807 106.186 561.61 107.246C563.413 108.307 564.815 109.822 565.815 111.792C566.815 113.746 567.315 116.08 567.315 118.792V141.019H557.633V120.519C557.648 118.383 557.102 116.716 555.996 115.519C554.89 114.307 553.368 113.701 551.428 113.701C550.125 113.701 548.974 113.981 547.974 114.542C546.989 115.102 546.216 115.921 545.655 116.996C545.11 118.057 544.83 119.337 544.815 120.837ZM590.718 141.701C587.142 141.701 584.066 140.943 581.491 139.428C578.93 137.898 576.96 135.777 575.582 133.065C574.218 130.352 573.536 127.231 573.536 123.701C573.536 120.125 574.226 116.989 575.604 114.292C576.998 111.58 578.976 109.466 581.536 107.951C584.097 106.421 587.142 105.655 590.673 105.655C593.718 105.655 596.385 106.209 598.673 107.315C600.96 108.421 602.771 109.974 604.104 111.974C605.438 113.974 606.173 116.322 606.309 119.019H597.173C596.915 117.277 596.233 115.875 595.127 114.815C594.036 113.739 592.604 113.201 590.832 113.201C589.332 113.201 588.021 113.61 586.9 114.428C585.794 115.231 584.93 116.405 584.309 117.951C583.688 119.496 583.377 121.368 583.377 123.565C583.377 125.792 583.68 127.686 584.286 129.246C584.907 130.807 585.779 131.996 586.9 132.815C588.021 133.633 589.332 134.042 590.832 134.042C591.938 134.042 592.93 133.815 593.809 133.36C594.703 132.905 595.438 132.246 596.013 131.383C596.604 130.504 596.991 129.451 597.173 128.224H606.309C606.157 130.89 605.43 133.239 604.127 135.269C602.839 137.284 601.059 138.86 598.786 139.996C596.513 141.133 593.824 141.701 590.718 141.701ZM628.417 141.701C624.826 141.701 621.735 140.974 619.144 139.519C616.568 138.049 614.583 135.974 613.19 133.292C611.796 130.595 611.099 127.405 611.099 123.724C611.099 120.133 611.796 116.981 613.19 114.269C614.583 111.557 616.546 109.443 619.076 107.928C621.621 106.413 624.606 105.655 628.03 105.655C630.333 105.655 632.477 106.027 634.462 106.769C636.462 107.496 638.205 108.595 639.69 110.065C641.19 111.534 642.356 113.383 643.19 115.61C644.023 117.822 644.44 120.413 644.44 123.383V126.042H614.962V120.042H635.326C635.326 118.648 635.023 117.413 634.417 116.337C633.811 115.262 632.97 114.421 631.894 113.815C630.833 113.193 629.599 112.883 628.19 112.883C626.72 112.883 625.417 113.224 624.28 113.905C623.159 114.572 622.28 115.474 621.644 116.61C621.008 117.731 620.682 118.981 620.667 120.36V126.065C620.667 127.792 620.985 129.284 621.621 130.542C622.273 131.799 623.19 132.769 624.371 133.451C625.553 134.133 626.955 134.474 628.576 134.474C629.652 134.474 630.637 134.322 631.53 134.019C632.424 133.716 633.19 133.262 633.826 132.655C634.462 132.049 634.947 131.307 635.28 130.428L644.235 131.019C643.78 133.171 642.849 135.049 641.44 136.655C640.046 138.246 638.243 139.489 636.03 140.383C633.833 141.262 631.296 141.701 628.417 141.701ZM277.065 218.019V171.474H307.883V179.587H286.905V190.678H305.837V198.792H286.905V218.019H277.065ZM313.758 218.019V183.11H323.144V189.201H323.508C324.144 187.034 325.212 185.398 326.712 184.292C328.212 183.171 329.94 182.61 331.894 182.61C332.379 182.61 332.902 182.64 333.462 182.701C334.023 182.762 334.515 182.845 334.94 182.951V191.542C334.485 191.405 333.856 191.284 333.053 191.178C332.25 191.072 331.515 191.019 330.849 191.019C329.424 191.019 328.152 191.33 327.03 191.951C325.924 192.557 325.046 193.405 324.394 194.496C323.758 195.587 323.44 196.845 323.44 198.269V218.019H313.758ZM348.9 218.678C346.673 218.678 344.688 218.292 342.945 217.519C341.203 216.731 339.824 215.572 338.809 214.042C337.809 212.496 337.309 210.572 337.309 208.269C337.309 206.33 337.665 204.701 338.377 203.383C339.089 202.065 340.059 201.004 341.286 200.201C342.513 199.398 343.907 198.792 345.468 198.383C347.044 197.974 348.695 197.686 350.423 197.519C352.453 197.307 354.089 197.11 355.332 196.928C356.574 196.731 357.476 196.443 358.036 196.065C358.597 195.686 358.877 195.125 358.877 194.383V194.246C358.877 192.807 358.423 191.693 357.513 190.905C356.619 190.118 355.347 189.724 353.695 189.724C351.953 189.724 350.566 190.11 349.536 190.883C348.506 191.64 347.824 192.595 347.491 193.746L338.536 193.019C338.991 190.898 339.885 189.065 341.218 187.519C342.551 185.959 344.271 184.762 346.377 183.928C348.498 183.08 350.953 182.655 353.741 182.655C355.68 182.655 357.536 182.883 359.309 183.337C361.097 183.792 362.68 184.496 364.059 185.451C365.453 186.405 366.551 187.633 367.354 189.133C368.157 190.618 368.559 192.398 368.559 194.474V218.019H359.377V213.178H359.104C358.544 214.269 357.794 215.231 356.854 216.065C355.915 216.883 354.786 217.527 353.468 217.996C352.15 218.451 350.627 218.678 348.9 218.678ZM351.673 211.996C353.097 211.996 354.354 211.716 355.445 211.155C356.536 210.58 357.392 209.807 358.013 208.837C358.635 207.868 358.945 206.769 358.945 205.542V201.837C358.642 202.034 358.226 202.216 357.695 202.383C357.18 202.534 356.597 202.678 355.945 202.815C355.294 202.936 354.642 203.049 353.991 203.155C353.339 203.246 352.748 203.33 352.218 203.405C351.082 203.572 350.089 203.837 349.241 204.201C348.392 204.565 347.733 205.057 347.263 205.678C346.794 206.284 346.559 207.042 346.559 207.951C346.559 209.269 347.036 210.277 347.991 210.974C348.96 211.655 350.188 211.996 351.673 211.996ZM376.07 218.019V183.11H385.298V189.269H385.707C386.434 187.224 387.646 185.61 389.343 184.428C391.04 183.246 393.07 182.655 395.434 182.655C397.828 182.655 399.866 183.254 401.548 184.451C403.229 185.633 404.351 187.239 404.911 189.269H405.275C405.987 187.269 407.275 185.671 409.138 184.474C411.017 183.262 413.237 182.655 415.798 182.655C419.055 182.655 421.699 183.693 423.729 185.769C425.775 187.83 426.798 190.754 426.798 194.542V218.019H417.138V196.451C417.138 194.512 416.623 193.057 415.593 192.087C414.563 191.118 413.275 190.633 411.729 190.633C409.972 190.633 408.601 191.193 407.616 192.315C406.631 193.421 406.138 194.883 406.138 196.701V218.019H396.752V196.246C396.752 194.534 396.26 193.171 395.275 192.155C394.305 191.14 393.025 190.633 391.434 190.633C390.358 190.633 389.388 190.905 388.525 191.451C387.676 191.981 387.002 192.731 386.502 193.701C386.002 194.655 385.752 195.777 385.752 197.065V218.019H376.07ZM450.354 218.701C446.763 218.701 443.673 217.974 441.082 216.519C438.506 215.049 436.521 212.974 435.127 210.292C433.733 207.595 433.036 204.405 433.036 200.724C433.036 197.133 433.733 193.981 435.127 191.269C436.521 188.557 438.483 186.443 441.013 184.928C443.559 183.413 446.544 182.655 449.968 182.655C452.271 182.655 454.415 183.027 456.4 183.769C458.4 184.496 460.142 185.595 461.627 187.065C463.127 188.534 464.294 190.383 465.127 192.61C465.96 194.822 466.377 197.413 466.377 200.383V203.042H436.9V197.042H457.263C457.263 195.648 456.96 194.413 456.354 193.337C455.748 192.262 454.907 191.421 453.832 190.815C452.771 190.193 451.536 189.883 450.127 189.883C448.657 189.883 447.354 190.224 446.218 190.905C445.097 191.572 444.218 192.474 443.582 193.61C442.945 194.731 442.619 195.981 442.604 197.36V203.065C442.604 204.792 442.923 206.284 443.559 207.542C444.21 208.799 445.127 209.769 446.309 210.451C447.491 211.133 448.892 211.474 450.513 211.474C451.589 211.474 452.574 211.322 453.468 211.019C454.362 210.716 455.127 210.262 455.763 209.655C456.4 209.049 456.885 208.307 457.218 207.428L466.173 208.019C465.718 210.171 464.786 212.049 463.377 213.655C461.983 215.246 460.18 216.489 457.968 217.383C455.771 218.262 453.233 218.701 450.354 218.701ZM479.332 218.019L469.832 183.11H479.627L485.036 206.565H485.354L490.991 183.11H500.604L506.332 206.428H506.627L511.945 183.11H521.718L512.241 218.019H501.991L495.991 196.065H495.559L489.559 218.019H479.332ZM541.78 218.701C538.25 218.701 535.197 217.951 532.621 216.451C530.061 214.936 528.083 212.83 526.69 210.133C525.296 207.421 524.599 204.277 524.599 200.701C524.599 197.095 525.296 193.943 526.69 191.246C528.083 188.534 530.061 186.428 532.621 184.928C535.197 183.413 538.25 182.655 541.78 182.655C545.311 182.655 548.356 183.413 550.917 184.928C553.493 186.428 555.477 188.534 556.871 191.246C558.265 193.943 558.962 197.095 558.962 200.701C558.962 204.277 558.265 207.421 556.871 210.133C555.477 212.83 553.493 214.936 550.917 216.451C548.356 217.951 545.311 218.701 541.78 218.701ZM541.826 211.201C543.432 211.201 544.773 210.746 545.849 209.837C546.924 208.913 547.735 207.655 548.28 206.065C548.841 204.474 549.121 202.663 549.121 200.633C549.121 198.602 548.841 196.792 548.28 195.201C547.735 193.61 546.924 192.352 545.849 191.428C544.773 190.504 543.432 190.042 541.826 190.042C540.205 190.042 538.841 190.504 537.735 191.428C536.644 192.352 535.818 193.61 535.258 195.201C534.712 196.792 534.44 198.602 534.44 200.633C534.44 202.663 534.712 204.474 535.258 206.065C535.818 207.655 536.644 208.913 537.735 209.837C538.841 210.746 540.205 211.201 541.826 211.201ZM565.258 218.019V183.11H574.644V189.201H575.008C575.644 187.034 576.712 185.398 578.212 184.292C579.712 183.171 581.44 182.61 583.394 182.61C583.879 182.61 584.402 182.64 584.962 182.701C585.523 182.762 586.015 182.845 586.44 182.951V191.542C585.985 191.405 585.356 191.284 584.553 191.178C583.75 191.072 583.015 191.019 582.349 191.019C580.924 191.019 579.652 191.33 578.53 191.951C577.424 192.557 576.546 193.405 575.894 194.496C575.258 195.587 574.94 196.845 574.94 198.269V218.019H565.258ZM600.218 207.974L600.241 196.36H601.65L612.832 183.11H623.945L608.923 200.655H606.627L600.218 207.974ZM591.445 218.019V171.474H601.127V218.019H591.445ZM613.263 218.019L602.991 202.815L609.445 195.974L624.604 218.019H613.263Z" fill="#CBD5E1"/>
</svg>
