<svg width="653" height="238" viewBox="0 0 653 238" fill="none" xmlns="http://www.w3.org/2000/svg">
<path d="M12.4489 146.343C8.16378 147.462 3.75619 144.886 2.94849 140.532C-5.87047 92.9874 15.3052 42.9299 59.4566 17.1247C105.782 -9.95132 162.958 -1.88588 200.067 33.2131L209.236 23.5104C211.45 21.1673 215.384 22.2719 216.055 25.4251L225.908 71.7188C226.491 74.4572 224.152 76.9317 221.385 76.5046L174.609 69.285C171.423 68.7932 170.097 64.9276 172.312 62.5845L181.439 52.9258C152.857 25.8922 108.819 19.6801 73.1389 40.5343C39.7074 60.0741 23.3793 97.6675 29.2912 133.727C30.0037 138.073 27.4807 142.42 23.2193 143.532L12.4489 146.343Z" fill="#0C243E"/>
<path d="M56.5612 185.074C85.1432 212.108 129.181 218.32 164.861 197.466C198.083 178.048 214.416 140.803 208.817 104.951C208.137 100.594 210.7 96.2618 214.977 95.1876L225.77 92.4769C230.061 91.3992 234.441 94.0089 235.214 98.3653C243.603 145.641 222.417 195.232 178.543 220.875C132.218 247.951 75.0423 239.886 37.933 204.787L28.7642 214.49C26.55 216.833 22.6156 215.728 21.9446 212.575L12.0922 166.281C11.5093 163.543 13.8477 161.068 16.6147 161.495L63.3913 168.715C66.5774 169.207 67.9027 173.072 65.6885 175.415L56.5612 185.074Z" fill="#0C243E"/>
<path d="M112.215 155.201L171.144 96.1708C174.266 93.0441 174.261 87.979 171.135 84.8575L165.157 78.889C162.032 75.769 156.97 75.7711 153.848 78.8935L108.23 124.511C106.668 126.073 104.136 126.073 102.574 124.511L82.7628 104.7C79.6367 101.574 74.5677 101.576 71.4443 104.705L66.5469 109.611C63.4254 112.737 63.4297 117.803 66.5566 120.924L100.901 155.21C104.028 158.332 109.093 158.328 112.215 155.201Z" fill="#0C243E"/>
<path d="M319.114 34.75H309.159C308.977 33.4621 308.606 32.3182 308.045 31.3182C307.485 30.303 306.765 29.4394 305.886 28.7273C305.008 28.0151 303.992 27.4697 302.841 27.0909C301.705 26.7121 300.47 26.5227 299.136 26.5227C296.727 26.5227 294.629 27.1212 292.841 28.3182C291.053 29.5 289.667 31.2273 288.682 33.5C287.697 35.7576 287.205 38.5 287.205 41.7273C287.205 45.0455 287.697 47.8333 288.682 50.0909C289.682 52.3485 291.076 54.053 292.864 55.2045C294.652 56.3561 296.72 56.9318 299.068 56.9318C300.386 56.9318 301.606 56.7576 302.727 56.4091C303.864 56.0606 304.871 55.553 305.75 54.8864C306.629 54.2045 307.356 53.3788 307.932 52.4091C308.523 51.4394 308.932 50.3333 309.159 49.0909L319.114 49.1364C318.856 51.2727 318.212 53.3333 317.182 55.3182C316.167 57.2879 314.795 59.053 313.068 60.6136C311.356 62.1591 309.311 63.3864 306.932 64.2955C304.568 65.1894 301.894 65.6364 298.909 65.6364C294.758 65.6364 291.045 64.697 287.773 62.8182C284.515 60.9394 281.939 58.2197 280.045 54.6591C278.167 51.0985 277.227 46.7879 277.227 41.7273C277.227 36.6515 278.182 32.3333 280.091 28.7727C282 25.2121 284.591 22.5 287.864 20.6364C291.136 18.7576 294.818 17.8182 298.909 17.8182C301.606 17.8182 304.106 18.197 306.409 18.9545C308.727 19.7121 310.78 20.8182 312.568 22.2727C314.356 23.7121 315.811 25.4773 316.932 27.5682C318.068 29.6591 318.795 32.053 319.114 34.75ZM341.761 65.6818C338.231 65.6818 335.178 64.9318 332.602 63.4318C330.042 61.9167 328.064 59.8106 326.67 57.1136C325.277 54.4015 324.58 51.2576 324.58 47.6818C324.58 44.0758 325.277 40.9242 326.67 38.2273C328.064 35.5152 330.042 33.4091 332.602 31.9091C335.178 30.3939 338.231 29.6364 341.761 29.6364C345.292 29.6364 348.337 30.3939 350.898 31.9091C353.473 33.4091 355.458 35.5152 356.852 38.2273C358.246 40.9242 358.943 44.0758 358.943 47.6818C358.943 51.2576 358.246 54.4015 356.852 57.1136C355.458 59.8106 353.473 61.9167 350.898 63.4318C348.337 64.9318 345.292 65.6818 341.761 65.6818ZM341.807 58.1818C343.413 58.1818 344.754 57.7273 345.83 56.8182C346.905 55.8939 347.716 54.6364 348.261 53.0455C348.822 51.4545 349.102 49.6439 349.102 47.6136C349.102 45.5833 348.822 43.7727 348.261 42.1818C347.716 40.5909 346.905 39.3333 345.83 38.4091C344.754 37.4848 343.413 37.0227 341.807 37.0227C340.186 37.0227 338.822 37.4848 337.716 38.4091C336.625 39.3333 335.799 40.5909 335.239 42.1818C334.693 43.7727 334.42 45.5833 334.42 47.6136C334.42 49.6439 334.693 51.4545 335.239 53.0455C335.799 54.6364 336.625 55.8939 337.716 56.8182C338.822 57.7273 340.186 58.1818 341.807 58.1818ZM374.92 44.8182V65H365.239V30.0909H374.466V36.25H374.875C375.648 34.2197 376.943 32.6136 378.761 31.4318C380.58 30.2348 382.784 29.6364 385.375 29.6364C387.799 29.6364 389.913 30.1667 391.716 31.2273C393.519 32.2879 394.92 33.803 395.92 35.7727C396.92 37.7273 397.42 40.0606 397.42 42.7727V65H387.739V44.5C387.754 42.3636 387.208 40.697 386.102 39.5C384.996 38.2879 383.473 37.6818 381.534 37.6818C380.231 37.6818 379.08 37.9621 378.08 38.5227C377.095 39.0833 376.322 39.9015 375.761 40.9773C375.216 42.0379 374.936 43.3182 374.92 44.8182ZM423.619 30.0909V37.3636H402.597V30.0909H423.619ZM407.369 21.7273H417.051V54.2727C417.051 55.1667 417.188 55.8636 417.46 56.3636C417.733 56.8485 418.112 57.1894 418.597 57.3864C419.097 57.5833 419.672 57.6818 420.324 57.6818C420.778 57.6818 421.233 57.6439 421.688 57.5682C422.142 57.4773 422.491 57.4091 422.733 57.3636L424.256 64.5682C423.771 64.7197 423.089 64.8939 422.21 65.0909C421.331 65.303 420.263 65.4318 419.006 65.4773C416.672 65.5682 414.627 65.2576 412.869 64.5455C411.127 63.8333 409.771 62.7273 408.801 61.2273C407.831 59.7273 407.354 57.8333 407.369 55.5455V21.7273ZM429.926 65V30.0909H439.608V65H429.926ZM434.79 25.5909C433.35 25.5909 432.116 25.1136 431.085 24.1591C430.07 23.1894 429.562 22.0303 429.562 20.6818C429.562 19.3485 430.07 18.2045 431.085 17.25C432.116 16.2803 433.35 15.7955 434.79 15.7955C436.229 15.7955 437.456 16.2803 438.472 17.25C439.502 18.2045 440.017 19.3485 440.017 20.6818C440.017 22.0303 439.502 23.1894 438.472 24.1591C437.456 25.1136 436.229 25.5909 434.79 25.5909ZM457.045 44.8182V65H447.364V30.0909H456.591V36.25H457C457.773 34.2197 459.068 32.6136 460.886 31.4318C462.705 30.2348 464.909 29.6364 467.5 29.6364C469.924 29.6364 472.038 30.1667 473.841 31.2273C475.644 32.2879 477.045 33.803 478.045 35.7727C479.045 37.7273 479.545 40.0606 479.545 42.7727V65H469.864V44.5C469.879 42.3636 469.333 40.697 468.227 39.5C467.121 38.2879 465.598 37.6818 463.659 37.6818C462.356 37.6818 461.205 37.9621 460.205 38.5227C459.22 39.0833 458.447 39.9015 457.886 40.9773C457.341 42.0379 457.061 43.3182 457.045 44.8182ZM509.562 50.1364V30.0909H519.244V65H509.949V58.6591H509.585C508.797 60.7045 507.487 62.3485 505.653 63.5909C503.835 64.8333 501.616 65.4545 498.994 65.4545C496.661 65.4545 494.608 64.9242 492.835 63.8636C491.063 62.803 489.676 61.2955 488.676 59.3409C487.691 57.3864 487.191 55.0455 487.176 52.3182V30.0909H496.858V50.5909C496.873 52.6515 497.426 54.2803 498.517 55.4773C499.608 56.6742 501.07 57.2727 502.903 57.2727C504.07 57.2727 505.161 57.0076 506.176 56.4773C507.191 55.9318 508.009 55.1288 508.631 54.0682C509.267 53.0076 509.578 51.697 509.562 50.1364ZM542.761 65.6818C539.231 65.6818 536.178 64.9318 533.602 63.4318C531.042 61.9167 529.064 59.8106 527.67 57.1136C526.277 54.4015 525.58 51.2576 525.58 47.6818C525.58 44.0758 526.277 40.9242 527.67 38.2273C529.064 35.5152 531.042 33.4091 533.602 31.9091C536.178 30.3939 539.231 29.6364 542.761 29.6364C546.292 29.6364 549.337 30.3939 551.898 31.9091C554.473 33.4091 556.458 35.5152 557.852 38.2273C559.246 40.9242 559.943 44.0758 559.943 47.6818C559.943 51.2576 559.246 54.4015 557.852 57.1136C556.458 59.8106 554.473 61.9167 551.898 63.4318C549.337 64.9318 546.292 65.6818 542.761 65.6818ZM542.807 58.1818C544.413 58.1818 545.754 57.7273 546.83 56.8182C547.905 55.8939 548.716 54.6364 549.261 53.0455C549.822 51.4545 550.102 49.6439 550.102 47.6136C550.102 45.5833 549.822 43.7727 549.261 42.1818C548.716 40.5909 547.905 39.3333 546.83 38.4091C545.754 37.4848 544.413 37.0227 542.807 37.0227C541.186 37.0227 539.822 37.4848 538.716 38.4091C537.625 39.3333 536.799 40.5909 536.239 42.1818C535.693 43.7727 535.42 45.5833 535.42 47.6136C535.42 49.6439 535.693 51.4545 536.239 53.0455C536.799 54.6364 537.625 55.8939 538.716 56.8182C539.822 57.7273 541.186 58.1818 542.807 58.1818ZM588.625 50.1364V30.0909H598.307V65H589.011V58.6591H588.648C587.86 60.7045 586.549 62.3485 584.716 63.5909C582.898 64.8333 580.678 65.4545 578.057 65.4545C575.723 65.4545 573.67 64.9242 571.898 63.8636C570.125 62.803 568.739 61.2955 567.739 59.3409C566.754 57.3864 566.254 55.0455 566.239 52.3182V30.0909H575.92V50.5909C575.936 52.6515 576.489 54.2803 577.58 55.4773C578.67 56.6742 580.133 57.2727 581.966 57.2727C583.133 57.2727 584.223 57.0076 585.239 56.4773C586.254 55.9318 587.072 55.1288 587.693 54.0682C588.33 53.0076 588.64 51.697 588.625 50.1364ZM635.097 40.0455L626.233 40.5909C626.081 39.8333 625.756 39.1515 625.256 38.5455C624.756 37.9242 624.097 37.4318 623.278 37.0682C622.475 36.6894 621.513 36.5 620.392 36.5C618.892 36.5 617.627 36.8182 616.597 37.4545C615.566 38.0758 615.051 38.9091 615.051 39.9545C615.051 40.7879 615.384 41.4924 616.051 42.0682C616.718 42.6439 617.862 43.1061 619.483 43.4545L625.801 44.7273C629.195 45.4242 631.725 46.5455 633.392 48.0909C635.059 49.6364 635.892 51.6667 635.892 54.1818C635.892 56.4697 635.218 58.4773 633.869 60.2045C632.536 61.9318 630.703 63.2803 628.369 64.25C626.051 65.2045 623.377 65.6818 620.347 65.6818C615.725 65.6818 612.044 64.7197 609.301 62.7955C606.574 60.8561 604.975 58.2197 604.506 54.8864L614.028 54.3864C614.316 55.7955 615.013 56.8712 616.119 57.6136C617.225 58.3409 618.642 58.7045 620.369 58.7045C622.066 58.7045 623.43 58.3788 624.46 57.7273C625.506 57.0606 626.036 56.2045 626.051 55.1591C626.036 54.2803 625.665 53.5606 624.938 53C624.21 52.4242 623.089 51.9848 621.574 51.6818L615.528 50.4773C612.119 49.7955 609.581 48.6136 607.915 46.9318C606.263 45.25 605.438 43.1061 605.438 40.5C605.438 38.2576 606.044 36.3258 607.256 34.7045C608.483 33.0833 610.203 31.8333 612.415 30.9545C614.642 30.0758 617.248 29.6364 620.233 29.6364C624.642 29.6364 628.112 30.5682 630.642 32.4318C633.188 34.2955 634.672 36.8333 635.097 40.0455ZM319.114 111.75H309.159C308.977 110.462 308.606 109.318 308.045 108.318C307.485 107.303 306.765 106.439 305.886 105.727C305.008 105.015 303.992 104.47 302.841 104.091C301.705 103.712 300.47 103.523 299.136 103.523C296.727 103.523 294.629 104.121 292.841 105.318C291.053 106.5 289.667 108.227 288.682 110.5C287.697 112.758 287.205 115.5 287.205 118.727C287.205 122.045 287.697 124.833 288.682 127.091C289.682 129.348 291.076 131.053 292.864 132.205C294.652 133.356 296.72 133.932 299.068 133.932C300.386 133.932 301.606 133.758 302.727 133.409C303.864 133.061 304.871 132.553 305.75 131.886C306.629 131.205 307.356 130.379 307.932 129.409C308.523 128.439 308.932 127.333 309.159 126.091L319.114 126.136C318.856 128.273 318.212 130.333 317.182 132.318C316.167 134.288 314.795 136.053 313.068 137.614C311.356 139.159 309.311 140.386 306.932 141.295C304.568 142.189 301.894 142.636 298.909 142.636C294.758 142.636 291.045 141.697 287.773 139.818C284.515 137.939 281.939 135.22 280.045 131.659C278.167 128.098 277.227 123.788 277.227 118.727C277.227 113.652 278.182 109.333 280.091 105.773C282 102.212 284.591 99.5 287.864 97.6364C291.136 95.7576 294.818 94.8182 298.909 94.8182C301.606 94.8182 304.106 95.197 306.409 95.9545C308.727 96.7121 310.78 97.8182 312.568 99.2727C314.356 100.712 315.811 102.477 316.932 104.568C318.068 106.659 318.795 109.053 319.114 111.75ZM341.761 142.682C338.231 142.682 335.178 141.932 332.602 140.432C330.042 138.917 328.064 136.811 326.67 134.114C325.277 131.402 324.58 128.258 324.58 124.682C324.58 121.076 325.277 117.924 326.67 115.227C328.064 112.515 330.042 110.409 332.602 108.909C335.178 107.394 338.231 106.636 341.761 106.636C345.292 106.636 348.337 107.394 350.898 108.909C353.473 110.409 355.458 112.515 356.852 115.227C358.246 117.924 358.943 121.076 358.943 124.682C358.943 128.258 358.246 131.402 356.852 134.114C355.458 136.811 353.473 138.917 350.898 140.432C348.337 141.932 345.292 142.682 341.761 142.682ZM341.807 135.182C343.413 135.182 344.754 134.727 345.83 133.818C346.905 132.894 347.716 131.636 348.261 130.045C348.822 128.455 349.102 126.644 349.102 124.614C349.102 122.583 348.822 120.773 348.261 119.182C347.716 117.591 346.905 116.333 345.83 115.409C344.754 114.485 343.413 114.023 341.807 114.023C340.186 114.023 338.822 114.485 337.716 115.409C336.625 116.333 335.799 117.591 335.239 119.182C334.693 120.773 334.42 122.583 334.42 124.614C334.42 126.644 334.693 128.455 335.239 130.045C335.799 131.636 336.625 132.894 337.716 133.818C338.822 134.727 340.186 135.182 341.807 135.182ZM365.239 142V107.091H374.466V113.25H374.875C375.602 111.205 376.814 109.591 378.511 108.409C380.208 107.227 382.239 106.636 384.602 106.636C386.996 106.636 389.034 107.235 390.716 108.432C392.398 109.614 393.519 111.22 394.08 113.25H394.443C395.155 111.25 396.443 109.652 398.307 108.455C400.186 107.242 402.405 106.636 404.966 106.636C408.223 106.636 410.867 107.674 412.898 109.75C414.943 111.811 415.966 114.735 415.966 118.523V142H406.307V120.432C406.307 118.492 405.792 117.038 404.761 116.068C403.731 115.098 402.443 114.614 400.898 114.614C399.14 114.614 397.769 115.174 396.784 116.295C395.799 117.402 395.307 118.864 395.307 120.682V142H385.92V120.227C385.92 118.515 385.428 117.152 384.443 116.136C383.473 115.121 382.193 114.614 380.602 114.614C379.527 114.614 378.557 114.886 377.693 115.432C376.845 115.962 376.17 116.712 375.67 117.682C375.17 118.636 374.92 119.758 374.92 121.045V142H365.239ZM423.614 155.091V107.091H433.159V112.955H433.591C434.015 112.015 434.629 111.061 435.432 110.091C436.25 109.106 437.311 108.288 438.614 107.636C439.932 106.97 441.568 106.636 443.523 106.636C446.068 106.636 448.417 107.303 450.568 108.636C452.72 109.955 454.439 111.947 455.727 114.614C457.015 117.265 457.659 120.591 457.659 124.591C457.659 128.485 457.03 131.773 455.773 134.455C454.53 137.121 452.833 139.144 450.682 140.523C448.545 141.886 446.152 142.568 443.5 142.568C441.621 142.568 440.023 142.258 438.705 141.636C437.402 141.015 436.333 140.235 435.5 139.295C434.667 138.341 434.03 137.379 433.591 136.409H433.295V155.091H423.614ZM433.091 124.545C433.091 126.621 433.379 128.432 433.955 129.977C434.53 131.523 435.364 132.727 436.455 133.591C437.545 134.439 438.871 134.864 440.432 134.864C442.008 134.864 443.341 134.432 444.432 133.568C445.523 132.689 446.348 131.477 446.909 129.932C447.485 128.371 447.773 126.576 447.773 124.545C447.773 122.53 447.492 120.758 446.932 119.227C446.371 117.697 445.545 116.5 444.455 115.636C443.364 114.773 442.023 114.341 440.432 114.341C438.856 114.341 437.523 114.758 436.432 115.591C435.356 116.424 434.53 117.606 433.955 119.136C433.379 120.667 433.091 122.47 433.091 124.545ZM473.795 95.4545V142H464.114V95.4545H473.795ZM481.551 142V107.091H491.233V142H481.551ZM486.415 102.591C484.975 102.591 483.741 102.114 482.71 101.159C481.695 100.189 481.188 99.0303 481.188 97.6818C481.188 96.3485 481.695 95.2045 482.71 94.25C483.741 93.2803 484.975 92.7955 486.415 92.7955C487.854 92.7955 489.081 93.2803 490.097 94.25C491.127 95.2045 491.642 96.3485 491.642 97.6818C491.642 99.0303 491.127 100.189 490.097 101.159C489.081 102.114 487.854 102.591 486.415 102.591ZM508.943 142.659C506.716 142.659 504.731 142.273 502.989 141.5C501.246 140.712 499.867 139.553 498.852 138.023C497.852 136.477 497.352 134.553 497.352 132.25C497.352 130.311 497.708 128.682 498.42 127.364C499.133 126.045 500.102 124.985 501.33 124.182C502.557 123.379 503.951 122.773 505.511 122.364C507.087 121.955 508.739 121.667 510.466 121.5C512.496 121.288 514.133 121.091 515.375 120.909C516.617 120.712 517.519 120.424 518.08 120.045C518.64 119.667 518.92 119.106 518.92 118.364V118.227C518.92 116.788 518.466 115.674 517.557 114.886C516.663 114.098 515.39 113.705 513.739 113.705C511.996 113.705 510.61 114.091 509.58 114.864C508.549 115.621 507.867 116.576 507.534 117.727L498.58 117C499.034 114.879 499.928 113.045 501.261 111.5C502.595 109.939 504.314 108.742 506.42 107.909C508.542 107.061 510.996 106.636 513.784 106.636C515.723 106.636 517.58 106.864 519.352 107.318C521.14 107.773 522.723 108.477 524.102 109.432C525.496 110.386 526.595 111.614 527.398 113.114C528.201 114.598 528.602 116.379 528.602 118.455V142H519.42V137.159H519.148C518.587 138.25 517.837 139.212 516.898 140.045C515.958 140.864 514.83 141.508 513.511 141.977C512.193 142.432 510.67 142.659 508.943 142.659ZM511.716 135.977C513.14 135.977 514.398 135.697 515.489 135.136C516.58 134.561 517.436 133.788 518.057 132.818C518.678 131.848 518.989 130.75 518.989 129.523V125.818C518.686 126.015 518.269 126.197 517.739 126.364C517.223 126.515 516.64 126.659 515.989 126.795C515.337 126.917 514.686 127.03 514.034 127.136C513.383 127.227 512.792 127.311 512.261 127.386C511.125 127.553 510.133 127.818 509.284 128.182C508.436 128.545 507.777 129.038 507.307 129.659C506.837 130.265 506.602 131.023 506.602 131.932C506.602 133.25 507.08 134.258 508.034 134.955C509.004 135.636 510.231 135.977 511.716 135.977ZM545.795 121.818V142H536.114V107.091H545.341V113.25H545.75C546.523 111.22 547.818 109.614 549.636 108.432C551.455 107.235 553.659 106.636 556.25 106.636C558.674 106.636 560.788 107.167 562.591 108.227C564.394 109.288 565.795 110.803 566.795 112.773C567.795 114.727 568.295 117.061 568.295 119.773V142H558.614V121.5C558.629 119.364 558.083 117.697 556.977 116.5C555.871 115.288 554.348 114.682 552.409 114.682C551.106 114.682 549.955 114.962 548.955 115.523C547.97 116.083 547.197 116.902 546.636 117.977C546.091 119.038 545.811 120.318 545.795 121.818ZM591.699 142.682C588.123 142.682 585.047 141.924 582.472 140.409C579.911 138.879 577.941 136.758 576.562 134.045C575.199 131.333 574.517 128.212 574.517 124.682C574.517 121.106 575.206 117.97 576.585 115.273C577.979 112.561 579.956 110.447 582.517 108.932C585.078 107.402 588.123 106.636 591.653 106.636C594.699 106.636 597.366 107.189 599.653 108.295C601.941 109.402 603.752 110.955 605.085 112.955C606.419 114.955 607.153 117.303 607.29 120H598.153C597.896 118.258 597.214 116.856 596.108 115.795C595.017 114.72 593.585 114.182 591.812 114.182C590.312 114.182 589.002 114.591 587.881 115.409C586.775 116.212 585.911 117.386 585.29 118.932C584.669 120.477 584.358 122.348 584.358 124.545C584.358 126.773 584.661 128.667 585.267 130.227C585.888 131.788 586.759 132.977 587.881 133.795C589.002 134.614 590.312 135.023 591.812 135.023C592.919 135.023 593.911 134.795 594.79 134.341C595.684 133.886 596.419 133.227 596.994 132.364C597.585 131.485 597.972 130.432 598.153 129.205H607.29C607.138 131.871 606.411 134.22 605.108 136.25C603.82 138.265 602.04 139.841 599.767 140.977C597.494 142.114 594.805 142.682 591.699 142.682ZM629.398 142.682C625.807 142.682 622.716 141.955 620.125 140.5C617.549 139.03 615.564 136.955 614.17 134.273C612.777 131.576 612.08 128.386 612.08 124.705C612.08 121.114 612.777 117.962 614.17 115.25C615.564 112.538 617.527 110.424 620.057 108.909C622.602 107.394 625.587 106.636 629.011 106.636C631.314 106.636 633.458 107.008 635.443 107.75C637.443 108.477 639.186 109.576 640.67 111.045C642.17 112.515 643.337 114.364 644.17 116.591C645.004 118.803 645.42 121.394 645.42 124.364V127.023H615.943V121.023H636.307C636.307 119.629 636.004 118.394 635.398 117.318C634.792 116.242 633.951 115.402 632.875 114.795C631.814 114.174 630.58 113.864 629.17 113.864C627.701 113.864 626.398 114.205 625.261 114.886C624.14 115.553 623.261 116.455 622.625 117.591C621.989 118.712 621.663 119.962 621.648 121.341V127.045C621.648 128.773 621.966 130.265 622.602 131.523C623.254 132.78 624.17 133.75 625.352 134.432C626.534 135.114 627.936 135.455 629.557 135.455C630.633 135.455 631.617 135.303 632.511 135C633.405 134.697 634.17 134.242 634.807 133.636C635.443 133.03 635.928 132.288 636.261 131.409L645.216 132C644.761 134.152 643.83 136.03 642.42 137.636C641.027 139.227 639.223 140.47 637.011 141.364C634.814 142.242 632.277 142.682 629.398 142.682ZM278.045 219V172.455H308.864V180.568H287.886V191.659H306.818V199.773H287.886V219H278.045ZM314.739 219V184.091H324.125V190.182H324.489C325.125 188.015 326.193 186.379 327.693 185.273C329.193 184.152 330.92 183.591 332.875 183.591C333.36 183.591 333.883 183.621 334.443 183.682C335.004 183.742 335.496 183.826 335.92 183.932V192.523C335.466 192.386 334.837 192.265 334.034 192.159C333.231 192.053 332.496 192 331.83 192C330.405 192 329.133 192.311 328.011 192.932C326.905 193.538 326.027 194.386 325.375 195.477C324.739 196.568 324.42 197.826 324.42 199.25V219H314.739ZM349.881 219.659C347.653 219.659 345.669 219.273 343.926 218.5C342.184 217.712 340.805 216.553 339.79 215.023C338.79 213.477 338.29 211.553 338.29 209.25C338.29 207.311 338.646 205.682 339.358 204.364C340.07 203.045 341.04 201.985 342.267 201.182C343.494 200.379 344.888 199.773 346.449 199.364C348.025 198.955 349.676 198.667 351.403 198.5C353.434 198.288 355.07 198.091 356.312 197.909C357.555 197.712 358.456 197.424 359.017 197.045C359.578 196.667 359.858 196.106 359.858 195.364V195.227C359.858 193.788 359.403 192.674 358.494 191.886C357.6 191.098 356.328 190.705 354.676 190.705C352.934 190.705 351.547 191.091 350.517 191.864C349.487 192.621 348.805 193.576 348.472 194.727L339.517 194C339.972 191.879 340.866 190.045 342.199 188.5C343.532 186.939 345.252 185.742 347.358 184.909C349.479 184.061 351.934 183.636 354.722 183.636C356.661 183.636 358.517 183.864 360.29 184.318C362.078 184.773 363.661 185.477 365.04 186.432C366.434 187.386 367.532 188.614 368.335 190.114C369.138 191.598 369.54 193.379 369.54 195.455V219H360.358V214.159H360.085C359.525 215.25 358.775 216.212 357.835 217.045C356.896 217.864 355.767 218.508 354.449 218.977C353.131 219.432 351.608 219.659 349.881 219.659ZM352.653 212.977C354.078 212.977 355.335 212.697 356.426 212.136C357.517 211.561 358.373 210.788 358.994 209.818C359.616 208.848 359.926 207.75 359.926 206.523V202.818C359.623 203.015 359.206 203.197 358.676 203.364C358.161 203.515 357.578 203.659 356.926 203.795C356.275 203.917 355.623 204.03 354.972 204.136C354.32 204.227 353.729 204.311 353.199 204.386C352.063 204.553 351.07 204.818 350.222 205.182C349.373 205.545 348.714 206.038 348.244 206.659C347.775 207.265 347.54 208.023 347.54 208.932C347.54 210.25 348.017 211.258 348.972 211.955C349.941 212.636 351.169 212.977 352.653 212.977ZM377.051 219V184.091H386.278V190.25H386.688C387.415 188.205 388.627 186.591 390.324 185.409C392.021 184.227 394.051 183.636 396.415 183.636C398.809 183.636 400.847 184.235 402.528 185.432C404.21 186.614 405.331 188.22 405.892 190.25H406.256C406.968 188.25 408.256 186.652 410.119 185.455C411.998 184.242 414.218 183.636 416.778 183.636C420.036 183.636 422.68 184.674 424.71 186.75C426.756 188.811 427.778 191.735 427.778 195.523V219H418.119V197.432C418.119 195.492 417.604 194.038 416.574 193.068C415.544 192.098 414.256 191.614 412.71 191.614C410.953 191.614 409.581 192.174 408.597 193.295C407.612 194.402 407.119 195.864 407.119 197.682V219H397.733V197.227C397.733 195.515 397.241 194.152 396.256 193.136C395.286 192.121 394.006 191.614 392.415 191.614C391.339 191.614 390.369 191.886 389.506 192.432C388.657 192.962 387.983 193.712 387.483 194.682C386.983 195.636 386.733 196.758 386.733 198.045V219H377.051ZM451.335 219.682C447.744 219.682 444.653 218.955 442.062 217.5C439.487 216.03 437.502 213.955 436.108 211.273C434.714 208.576 434.017 205.386 434.017 201.705C434.017 198.114 434.714 194.962 436.108 192.25C437.502 189.538 439.464 187.424 441.994 185.909C444.54 184.394 447.525 183.636 450.949 183.636C453.252 183.636 455.396 184.008 457.381 184.75C459.381 185.477 461.123 186.576 462.608 188.045C464.108 189.515 465.275 191.364 466.108 193.591C466.941 195.803 467.358 198.394 467.358 201.364V204.023H437.881V198.023H458.244C458.244 196.629 457.941 195.394 457.335 194.318C456.729 193.242 455.888 192.402 454.812 191.795C453.752 191.174 452.517 190.864 451.108 190.864C449.638 190.864 448.335 191.205 447.199 191.886C446.078 192.553 445.199 193.455 444.562 194.591C443.926 195.712 443.6 196.962 443.585 198.341V204.045C443.585 205.773 443.903 207.265 444.54 208.523C445.191 209.78 446.108 210.75 447.29 211.432C448.472 212.114 449.873 212.455 451.494 212.455C452.57 212.455 453.555 212.303 454.449 212C455.343 211.697 456.108 211.242 456.744 210.636C457.381 210.03 457.866 209.288 458.199 208.409L467.153 209C466.699 211.152 465.767 213.03 464.358 214.636C462.964 216.227 461.161 217.47 458.949 218.364C456.752 219.242 454.214 219.682 451.335 219.682ZM480.312 219L470.812 184.091H480.608L486.017 207.545H486.335L491.972 184.091H501.585L507.312 207.409H507.608L512.926 184.091H522.699L513.222 219H502.972L496.972 197.045H496.54L490.54 219H480.312ZM542.761 219.682C539.231 219.682 536.178 218.932 533.602 217.432C531.042 215.917 529.064 213.811 527.67 211.114C526.277 208.402 525.58 205.258 525.58 201.682C525.58 198.076 526.277 194.924 527.67 192.227C529.064 189.515 531.042 187.409 533.602 185.909C536.178 184.394 539.231 183.636 542.761 183.636C546.292 183.636 549.337 184.394 551.898 185.909C554.473 187.409 556.458 189.515 557.852 192.227C559.246 194.924 559.943 198.076 559.943 201.682C559.943 205.258 559.246 208.402 557.852 211.114C556.458 213.811 554.473 215.917 551.898 217.432C549.337 218.932 546.292 219.682 542.761 219.682ZM542.807 212.182C544.413 212.182 545.754 211.727 546.83 210.818C547.905 209.894 548.716 208.636 549.261 207.045C549.822 205.455 550.102 203.644 550.102 201.614C550.102 199.583 549.822 197.773 549.261 196.182C548.716 194.591 547.905 193.333 546.83 192.409C545.754 191.485 544.413 191.023 542.807 191.023C541.186 191.023 539.822 191.485 538.716 192.409C537.625 193.333 536.799 194.591 536.239 196.182C535.693 197.773 535.42 199.583 535.42 201.614C535.42 203.644 535.693 205.455 536.239 207.045C536.799 208.636 537.625 209.894 538.716 210.818C539.822 211.727 541.186 212.182 542.807 212.182ZM566.239 219V184.091H575.625V190.182H575.989C576.625 188.015 577.693 186.379 579.193 185.273C580.693 184.152 582.42 183.591 584.375 183.591C584.86 183.591 585.383 183.621 585.943 183.682C586.504 183.742 586.996 183.826 587.42 183.932V192.523C586.966 192.386 586.337 192.265 585.534 192.159C584.731 192.053 583.996 192 583.33 192C581.905 192 580.633 192.311 579.511 192.932C578.405 193.538 577.527 194.386 576.875 195.477C576.239 196.568 575.92 197.826 575.92 199.25V219H566.239ZM601.199 208.955L601.222 197.341H602.631L613.812 184.091H624.926L609.903 201.636H607.608L601.199 208.955ZM592.426 219V172.455H602.108V219H592.426ZM614.244 219L603.972 203.795L610.426 196.955L625.585 219H614.244Z" fill="#0C243E"/>
</svg>
