<svg xmlns="http://www.w3.org/2000/svg" xmlns:xlink="http://www.w3.org/1999/xlink" width="239" zoomAndPan="magnify" viewBox="0 0 179.25 204.749995" height="273" preserveAspectRatio="xMidYMid meet" version="1.2">
  <path style=" stroke:none;fill-rule:nonzero;fill:#0C243E;fill-opacity:1;" d="M 8.566406 122.3125 C 5.363281 123.148438 2.074219 121.226562 1.46875 117.972656 C -5.117188 82.464844 10.699219 45.078125 43.675781 25.804688 C 78.273438 5.582031 120.976562 11.605469 148.691406 37.820312 L 155.539062 30.574219 C 157.195312 28.824219 160.132812 29.648438 160.632812 32.003906 L 167.992188 66.578125 C 168.429688 68.625 166.679688 70.472656 164.613281 70.152344 L 129.679688 64.761719 C 127.300781 64.394531 126.308594 61.507812 127.960938 59.757812 L 134.78125 52.542969 C 113.433594 32.351562 80.542969 27.710938 53.894531 43.289062 C 28.925781 57.882812 16.730469 85.957031 21.144531 112.890625 C 21.675781 116.136719 19.792969 119.382812 16.609375 120.214844 Z M 8.566406 122.3125 "/>
  <path style=" stroke:none;fill-rule:nonzero;fill:#0C243E;fill-opacity:1;" d="M 41.511719 151.242188 C 62.859375 171.429688 95.75 176.070312 122.398438 160.496094 C 147.210938 145.992188 159.410156 118.175781 155.226562 91.398438 C 154.71875 88.144531 156.632812 84.910156 159.828125 84.105469 L 167.890625 82.082031 C 171.09375 81.277344 174.367188 83.226562 174.941406 86.480469 C 181.207031 121.789062 165.386719 158.828125 132.617188 177.980469 C 98.019531 198.203125 55.316406 192.179688 27.597656 165.964844 L 20.75 173.210938 C 19.097656 174.960938 16.160156 174.136719 15.65625 171.78125 L 8.296875 137.203125 C 7.863281 135.160156 9.609375 133.3125 11.675781 133.628906 L 46.613281 139.023438 C 48.992188 139.390625 49.980469 142.277344 48.328125 144.027344 Z M 41.511719 151.242188 "/>
  <path style=" stroke:none;fill-rule:nonzero;fill:#0C243E;fill-opacity:1;" d="M 83.078125 128.929688 L 127.089844 84.839844 C 129.421875 82.503906 129.417969 78.722656 127.082031 76.390625 L 122.617188 71.933594 C 120.285156 69.601562 116.503906 69.605469 114.171875 71.9375 L 80.101562 106.007812 C 78.933594 107.175781 77.042969 107.175781 75.878906 106.007812 L 61.082031 91.210938 C 58.746094 88.875 54.960938 88.878906 52.628906 91.214844 L 48.96875 94.878906 C 46.636719 97.214844 46.640625 100.996094 48.976562 103.328125 L 74.628906 128.9375 C 76.964844 131.265625 80.746094 131.265625 83.078125 128.929688 Z M 83.078125 128.929688 "/>
</svg>