<svg width="237" height="237" viewBox="0 0 237 237" fill="none" xmlns="http://www.w3.org/2000/svg">
<path d="M11.468 145.362C7.18288 146.481 2.77529 143.906 1.96759 139.551C-6.85137 92.0065 14.3244 41.9491 58.4757 16.1438C104.801 -10.9322 161.977 -2.86675 199.086 32.2322L208.255 22.5295C210.469 20.1864 214.403 21.291 215.075 24.4442L224.927 70.7379C225.51 73.4763 223.171 75.9508 220.404 75.5238L173.628 68.3041C170.442 67.8124 169.116 63.9467 171.331 61.6036L180.458 51.9449C151.876 24.9113 107.838 18.6992 72.158 39.5534C38.7265 59.0933 22.3984 96.6867 28.3103 132.746C29.0228 137.092 26.4998 141.439 22.2384 142.551L11.468 145.362Z" fill="#E2E8F0"/>
<path d="M55.5803 184.093C84.1623 211.127 128.2 217.339 163.88 196.485C197.102 177.067 213.435 139.822 207.836 103.97C207.156 99.6129 209.72 95.281 213.997 94.2067L224.789 91.4961C229.08 90.4183 233.46 93.028 234.233 97.3844C242.622 144.66 221.436 194.251 177.563 219.894C131.237 246.97 74.0614 238.905 36.9521 203.806L27.7833 213.509C25.5691 215.852 21.6347 214.747 20.9637 211.594L11.1113 165.3C10.5285 162.562 12.8668 160.087 15.6338 160.514L62.4104 167.734C65.5965 168.226 66.9218 172.092 64.7076 174.435L55.5803 184.093Z" fill="#E2E8F0"/>
<path d="M111.234 154.22L170.163 95.1901C173.285 92.0634 173.28 86.9983 170.154 83.8767L164.176 77.9082C161.051 74.7883 155.989 74.7903 152.867 77.9127L107.249 123.53C105.687 125.092 103.155 125.092 101.593 123.53L81.7819 103.719C78.6558 100.593 73.5868 100.595 70.4634 103.724L65.566 108.63C62.4445 111.757 62.4488 116.822 65.5757 119.944L99.9202 154.23C103.047 157.351 108.112 157.347 111.234 154.22Z" fill="#E2E8F0"/>
</svg>
