<?xml version="1.0" encoding="UTF-8"?>
<svg version="1.1" xmlns="http://www.w3.org/2000/svg" width="1024" height="1024">
<path d="M0 0 C2.12128306 2.04143116 4.18756951 4.11876932 6.234375 6.234375 C7.95842251 7.95842251 9.75144505 9.50382824 11.625 11.0625 C17.66088235 16.25644199 22.90943153 22.27282229 28.28222656 28.13378906 C29.83078516 29.81616285 31.39191889 31.48517067 32.9609375 33.1484375 C39.23214024 39.85089774 44.97178754 46.8250022 50.54345703 54.10644531 C52.04513032 56.05867093 53.56582785 57.99486644 55.08984375 59.9296875 C67.25309306 75.46707788 78.15902294 91.90068478 88 109 C88.3697998 109.63276855 88.73959961 110.26553711 89.12060547 110.91748047 C112.31826947 150.7226743 128.89949981 194.09712103 139 239 C139.35336426 240.55847656 139.35336426 240.55847656 139.71386719 242.1484375 C143.60761386 259.61197465 146.01626205 277.2344717 148 295 C148.12004395 296.01384766 148.24008789 297.02769531 148.36376953 298.07226562 C152.51288909 334.15909386 151.51147025 371.98109133 147 408 C146.91514343 408.68394836 146.83028687 409.36789673 146.74285889 410.0725708 C135.6982605 498.12933052 99.97444826 580.85228068 43 649 C42.53835449 649.55333008 42.07670898 650.10666016 41.60107422 650.67675781 C35.73743195 657.68372327 29.76004213 664.40523496 23.2109375 670.7890625 C21.29111732 672.70888268 19.54608948 674.66441266 17.8125 676.75 C12.6467324 682.78488964 6.62289233 688.02253027 0.77148438 693.37695312 C-0.72654431 694.74945791 -2.21583055 696.13149548 -3.703125 697.515625 C-9.8872807 703.20832462 -16.41928366 708.38741269 -23.07421875 713.51123047 C-25.03752028 715.02900591 -26.98796363 716.56225273 -28.9375 718.09765625 C-44.47582371 730.25598065 -60.90554888 741.15568954 -78 751 C-78.62213379 751.36448242 -79.24426758 751.72896484 -79.88525391 752.10449219 C-135.91620428 784.84894024 -198.58337889 804.04080264 -263 811 C-263.9168457 811.10441406 -264.83369141 811.20882812 -265.77832031 811.31640625 C-359.87082973 821.60116342 -454.8374524 802.72293401 -609.7421875 712.80859375 C-629.46281473 696.83202763 -629.46281473 696.83202763 -638.234375 687.765625 C-639.95842251 686.04157749 -641.75144505 684.49617176 -643.625 682.9375 C-649.66088235 677.74355801 -654.90943153 671.72717771 -660.28222656 665.86621094 C-661.83078516 664.18383715 -663.39191889 662.51482933 -664.9609375 660.8515625 C-671.23214024 654.14910226 -676.97178754 647.1749978 -682.54345703 639.89355469 C-684.04513032 637.94132907 -685.56582785 636.00513356 -687.08984375 634.0703125 C-699.25309306 618.53292212 -710.15902294 602.09931522 -720 585 C-720.3697998 584.36723145 -720.73959961 583.73446289 -721.12060547 583.08251953 C-744.31826947 543.2773257 -760.89949981 499.90287897 -771 455 C-771.23557617 453.96101562 -771.47115234 452.92203125 -771.71386719 451.8515625 C-775.60761386 434.38802535 -778.01626205 416.7655283 -780 399 C-780.12004395 397.98615234 -780.24008789 396.97230469 -780.36376953 395.92773438 C-784.51288909 359.84090614 -783.51147025 322.01890867 -779 286 C-778.91514343 285.31605164 -778.83028687 284.63210327 -778.74285889 283.9274292 C-767.6982605 195.87066948 -731.97444826 113.14771932 -675 45 C-674.53835449 44.44666992 -674.07670898 43.89333984 -673.60107422 43.32324219 C-667.73743195 36.31627673 -661.76004213 29.59476504 -655.2109375 23.2109375 C-653.29111732 21.29111732 -651.54608948 19.33558734 -649.8125 17.25 C-644.6467324 11.21511036 -638.62289233 5.97746973 -632.77148438 0.62304688 C-631.27345569 -0.74945791 -629.78416945 -2.13149548 -628.296875 -3.515625 C-622.1127193 -9.20832462 -615.58071634 -14.38741269 -608.92578125 -19.51123047 C-606.96247972 -21.02900591 -605.01203637 -22.56225273 -603.0625 -24.09765625 C-587.52417629 -36.25598065 -571.09445112 -47.15568954 -554 -57 C-553.37786621 -57.36448242 -552.75573242 -57.72896484 -552.11474609 -58.10449219 C-496.08379572 -90.84894024 -433.41662111 -110.04080264 -369 -117 C-368.0831543 -117.10441406 -367.16630859 -117.20882812 -366.22167969 -117.31640625 C-272.12917027 -127.60116342 -177.1625476 -108.72293401 0 0 Z " fill="#F8F8F8" transform="translate(828,175)"/>
<path d="M0 0 C2.12128306 2.04143116 4.18756951 4.11876932 6.234375 6.234375 C7.95842251 7.95842251 9.75144505 9.50382824 11.625 11.0625 C17.66088235 16.25644199 22.90943153 22.27282229 28.28222656 28.13378906 C29.83078516 29.81616285 31.39191889 31.48517067 32.9609375 33.1484375 C39.23214024 39.85089774 44.97178754 46.8250022 50.54345703 54.10644531 C52.04513032 56.05867093 53.56582785 57.99486644 55.08984375 59.9296875 C67.25309306 75.46707788 78.15902294 91.90068478 88 109 C88.3697998 109.63276855 88.73959961 110.26553711 89.12060547 110.91748047 C112.31826947 150.7226743 128.89949981 194.09712103 139 239 C139.35336426 240.55847656 139.35336426 240.55847656 139.71386719 242.1484375 C143.60761386 259.61197465 146.01626205 277.2344717 148 295 C148.12004395 296.01384766 148.24008789 297.02769531 148.36376953 298.07226562 C152.51288909 334.15909386 151.51147025 371.98109133 147 408 C146.91514343 408.68394836 146.83028687 409.36789673 146.74285889 410.0725708 C135.6982605 498.12933052 99.97444826 580.85228068 43 649 C42.53835449 649.55333008 42.07670898 650.10666016 41.60107422 650.67675781 C35.73743195 657.68372327 29.76004213 664.40523496 23.2109375 670.7890625 C21.29111732 672.70888268 19.54608948 674.66441266 17.8125 676.75 C12.6467324 682.78488964 6.62289233 688.02253027 0.77148438 693.37695312 C-0.72654431 694.74945791 -2.21583055 696.13149548 -3.703125 697.515625 C-9.8872807 703.20832462 -16.41928366 708.38741269 -23.07421875 713.51123047 C-25.03752028 715.02900591 -26.98796363 716.56225273 -28.9375 718.09765625 C-44.47582371 730.25598065 -60.90554888 741.15568954 -78 751 C-78.62213379 751.36448242 -79.24426758 751.72896484 -79.88525391 752.10449219 C-135.91620428 784.84894024 -198.58337889 804.04080264 -263 811 C-263.9168457 811.10441406 -264.83369141 811.20882812 -265.77832031 811.31640625 C-359.87082973 821.60116342 -454.8374524 802.72293401 -609.7421875 712.80859375 C-629.46281473 696.83202763 -629.46281473 696.83202763 -638.234375 687.765625 C-639.95842251 686.04157749 -641.75144505 684.49617176 -643.625 682.9375 C-649.66088235 677.74355801 -654.90943153 671.72717771 -660.28222656 665.86621094 C-661.83078516 664.18383715 -663.39191889 662.51482933 -664.9609375 660.8515625 C-671.23214024 654.14910226 -676.97178754 647.1749978 -682.54345703 639.89355469 C-684.04513032 637.94132907 -685.56582785 636.00513356 -687.08984375 634.0703125 C-699.25309306 618.53292212 -710.15902294 602.09931522 -720 585 C-720.3697998 584.36723145 -720.73959961 583.73446289 -721.12060547 583.08251953 C-744.31826947 543.2773257 -760.89949981 499.90287897 -771 455 C-771.23557617 453.96101562 -771.47115234 452.92203125 -771.71386719 451.8515625 C-775.60761386 434.38802535 -778.01626205 416.7655283 -780 399 C-780.12004395 397.98615234 -780.24008789 396.97230469 -780.36376953 395.92773438 C-784.51288909 359.84090614 -783.51147025 322.01890867 -779 286 C-778.91514343 285.31605164 -778.83028687 284.63210327 -778.74285889 283.9274292 C-767.6982605 195.87066948 -731.97444826 113.14771932 -675 45 C-674.53835449 44.44666992 -674.07670898 43.89333984 -673.60107422 43.32324219 C-667.73743195 36.31627673 -661.76004213 29.59476504 -655.2109375 23.2109375 C-653.29111732 21.29111732 -651.54608948 19.33558734 -649.8125 17.25 C-644.6467324 11.21511036 -638.62289233 5.97746973 -632.77148438 0.62304688 C-631.27345569 -0.74945791 -629.78416945 -2.13149548 -628.296875 -3.515625 C-622.1127193 -9.20832462 -615.58071634 -14.38741269 -608.92578125 -19.51123047 C-606.96247972 -21.02900591 -605.01203637 -22.56225273 -603.0625 -24.09765625 C-587.52417629 -36.25598065 -571.09445112 -47.15568954 -554 -57 C-553.37786621 -57.36448242 -552.75573242 -57.72896484 -552.11474609 -58.10449219 C-496.08379572 -90.84894024 -433.41662111 -110.04080264 -369 -117 C-368.0831543 -117.10441406 -367.16630859 -117.20882812 -366.22167969 -117.31640625 C-272.12917027 -127.60116342 -177.1625476 -108.72293401 0 0 Z M-376 -110 C-377.19657227 -109.83371094 -378.39314453 -109.66742188 -379.62597656 -109.49609375 C-453.04177565 -99.10434237 -526.49560903 -70.26998239 -585.08007812 -24.48730469 C-587.14570023 -22.8871305 -589.23402237 -21.32050645 -591.328125 -19.7578125 C-598.95919599 -14.04270974 -606.27012207 -8.19414877 -613.19140625 -1.6328125 C-615.26112335 0.30736737 -617.34411592 2.15425449 -619.5 3.9921875 C-625.12704798 8.89271531 -630.37127329 14.18524865 -635.64477539 19.45947266 C-637.42510252 21.23761772 -639.21328377 23.00759561 -641.00195312 24.77734375 C-647.03371517 30.77968665 -652.73468238 36.85732784 -658.03173828 43.53320312 C-659.85565498 45.81909426 -661.74109536 48.01788042 -663.68359375 50.203125 C-680.00056284 68.68224493 -693.71404722 89.69526084 -706 111 C-706.41668945 111.71236816 -706.83337891 112.42473633 -707.26269531 113.15869141 C-736.62463742 163.4613911 -754.99732015 219.41482506 -763 277 C-763.16371094 278.11665039 -763.32742188 279.23330078 -763.49609375 280.38378906 C-774.97251514 361.54864528 -760.80384489 447.6643075 -727 522 C-726.21133545 523.73781738 -726.21133545 523.73781738 -725.40673828 525.51074219 C-713.54555273 551.39160378 -699.42623004 575.80276784 -682.6875 598.875 C-682.13263916 599.64038086 -681.57777832 600.40576172 -681.00610352 601.19433594 C-665.88702378 621.93475042 -649.02744371 641.01060131 -630.95791626 659.21731567 C-629.96172454 660.22154555 -628.96701792 661.22725132 -627.97396851 662.23458862 C-621.33223167 668.96173794 -614.40177694 675.11682586 -607 681 C-605.94969737 681.8758697 -604.90305325 682.75618586 -603.86328125 683.64453125 C-532.23418842 744.52377554 -436.21569273 783.87075589 -332.3515625 787.203125 C-331.18831955 787.21013931 -330.0250766 787.21715363 -328.82658386 787.22438049 C-325.0926827 787.24178437 -321.35894024 787.24823301 -317.625 787.25 C-316.34789154 787.25067474 -315.07078308 787.25134949 -313.75497437 787.25204468 C-294.64782065 787.23600148 -275.93110122 786.78604592 -257 784 C-255.76475586 783.82307617 -254.52951172 783.64615234 -253.25683594 783.46386719 C-165.05634669 770.53851075 -83.87641983 732.7922349 -17 674 C-16.09636719 673.20980469 -15.19273437 672.41960938 -14.26171875 671.60546875 C-7.58609187 665.62542094 -1.20983699 659.33723887 5.14993286 653.02529907 C6.15758155 652.02569029 7.16670601 651.02756645 8.17745972 650.03109741 C14.17699724 644.1074036 19.81213583 638.02232531 25.05664062 631.41088867 C26.89791886 629.12663961 28.81761616 626.96273326 30.8125 624.8125 C36.69130081 618.25851018 41.82004178 611.10870046 47 604 C47.50080078 603.31341309 48.00160156 602.62682617 48.51757812 601.91943359 C90.91226435 543.50928409 119.29643339 475.4361155 130 404 C130.19609863 402.7020752 130.39219727 401.40415039 130.59423828 400.06689453 C136.4697717 359.88795926 136.86420071 317.19918325 131 277 C130.83902832 275.81937988 130.67805664 274.63875977 130.51220703 273.42236328 C118.65215139 187.82716826 80.92482807 103.12896325 22.1953125 39.40625 C20.99611293 38.09182484 19.80438671 36.76976457 18.65234375 35.41381836 C13.25852982 29.08857268 7.41518243 23.22907561 1.54052734 17.35522461 C-0.23761772 15.57489748 -2.00759561 13.78671623 -3.77734375 11.99804688 C-9.77968665 5.96628483 -15.85732784 0.26531762 -22.53320312 -5.03173828 C-24.81909426 -6.85565498 -27.01788042 -8.74109536 -29.203125 -10.68359375 C-47.68224493 -27.00056284 -68.69526084 -40.71404722 -90 -53 C-90.71236816 -53.41668945 -91.42473633 -53.83337891 -92.15869141 -54.26269531 C-154.18160142 -90.4657839 -227.80942359 -112.91600428 -299.8671875 -113.203125 C-301.64541397 -113.21364647 -301.64541397 -113.21364647 -303.45956421 -113.22438049 C-307.26474859 -113.24178609 -311.06977727 -113.24823294 -314.875 -113.25 C-316.17578491 -113.25067474 -317.47656982 -113.25134949 -318.81677246 -113.25204468 C-338.07197703 -113.23616538 -356.92204995 -112.79699816 -376 -110 Z " fill="#000000" transform="translate(828,175)"/>
<path d="M0 0 C11.13671137 9.46620467 19.2315841 23.44376248 21.375 37.9375 C21.67545822 43.39497313 21.66949821 48.84712509 21.66552734 54.31079102 C21.67152004 55.96101686 21.67832728 57.61123992 21.68588257 59.26145935 C21.70347901 63.72468342 21.70823539 68.18783068 21.70951414 72.65108609 C21.71094044 75.44717207 21.71521918 78.24323881 21.72050858 81.03931999 C21.73899114 90.81602074 21.74718182 100.59266712 21.74560547 110.36938477 C21.74440607 119.44602074 21.76547339 128.52241816 21.7970928 137.59899384 C21.82335628 145.4201787 21.83396849 153.24128617 21.83269465 161.06251472 C21.83218777 165.72096179 21.83771745 170.37919688 21.85905075 175.03759956 C21.87860258 179.42658869 21.87844356 183.81516741 21.86401749 188.20417213 C21.86194877 189.80195983 21.86651248 191.39977437 21.8787384 192.99751663 C22.01958674 212.70361514 17.41457168 230.33162627 3.375 244.9375 C-10.5567987 257.15461578 -26.3783617 262.88014359 -44.8515625 262.2109375 C-58.46551402 261.22441927 -74.45941848 254.29859216 -83.625 243.9375 C-89.58338948 236.88471245 -94.56154201 229.69183432 -97.625 220.9375 C-97.99510334 219.88909612 -97.99510334 219.88909612 -98.37268353 218.81951237 C-101.0523888 210.30273374 -101.04287229 202.060308 -100.99731445 193.24194336 C-100.99974695 191.58168816 -101.0034707 189.92143443 -101.00837708 188.26118469 C-101.0177263 183.78188929 -101.00841157 179.30281469 -100.99504495 174.82353663 C-100.98366688 170.11970821 -100.9878428 165.41588964 -100.98979187 160.71205139 C-100.99067276 152.81638006 -100.97963678 144.92079492 -100.96118164 137.02514648 C-100.94000987 127.91546735 -100.93650697 118.80591433 -100.9427436 109.69621557 C-100.94845114 100.90709018 -100.9427757 92.11800888 -100.93157005 83.32888985 C-100.92694321 79.5998814 -100.92604187 75.8709001 -100.9281559 72.14188957 C-100.93004866 67.74640601 -100.92185942 63.35104959 -100.9060955 58.95559502 C-100.90187715 57.3488467 -100.90098547 55.74208543 -100.90378571 54.13533401 C-100.92909416 37.00702448 -98.12023707 22.89508332 -87.625 8.9375 C-87.18671875 8.33421875 -86.7484375 7.7309375 -86.296875 7.109375 C-78.18163021 -3.244558 -64.28558229 -11.52313254 -51.3125 -13.8125 C-31.87595761 -15.62055046 -15.78911988 -11.95680923 0 0 Z " fill="#2EB67D" transform="translate(628.625,234.0625)"/>
<path d="M0 0 C1.64789794 -0.00379516 3.29579266 -0.00930495 4.94367981 -0.01637268 C9.36708988 -0.03018441 13.79010479 -0.01926143 18.21349239 -0.00266147 C22.86964567 0.01132051 27.52577903 0.0047145 32.1819458 0.00120544 C39.99229203 -0.00148531 47.80248357 0.0118844 55.61279297 0.03515625 C64.61521938 0.06179613 73.61738802 0.06349695 82.61984038 0.05176789 C91.32195409 0.04095575 100.02397545 0.04720168 108.72608185 0.06132317 C112.41158507 0.06704947 116.09701998 0.06702701 119.78252411 0.06225777 C124.12642998 0.05745365 128.47005667 0.06773041 132.81390953 0.08921242 C134.39885454 0.09473261 135.98382663 0.09528998 137.56877327 0.09025955 C155.28526758 0.04111774 171.19287942 3.68660486 184.86035156 15.50170898 C185.84003906 16.2609668 186.81972656 17.02022461 187.82910156 17.80249023 C191.08882282 20.52217578 193.26399081 23.59854328 195.48535156 27.18920898 C195.87215088 27.80425293 196.2589502 28.41929687 196.6574707 29.05297852 C205.12728306 42.83369886 208.67532936 58.85831246 204.98535156 74.80639648 C200.30981838 91.93444659 190.78422537 104.95737108 175.86035156 114.50170898 C166.56419461 119.45457949 157.00627305 122.74501108 146.44255066 122.7624054 C145.74110548 122.76623094 145.0396603 122.77005649 144.3169592 122.77399796 C141.99044312 122.78423258 139.66417826 122.78035417 137.33764648 122.77636719 C135.65975214 122.780719 133.98185977 122.78590372 132.30397034 122.79185486 C127.76250548 122.80520684 123.22112404 122.80582768 118.67964339 122.80329156 C114.88020517 122.80221908 111.08078364 122.80711239 107.281349 122.81189698 C98.31247184 122.82297943 89.34363655 122.82343694 80.37475586 122.81738281 C71.14187113 122.81134599 61.90913891 122.82364955 52.6762802 122.84495288 C44.73205383 122.86260461 36.78787585 122.86856454 28.84363061 122.86531514 C24.10656447 122.86350754 19.36960709 122.8660859 14.63255882 122.88002968 C10.174705 122.89266134 5.71708773 122.89061374 1.25923729 122.87761879 C-0.36967043 122.87526489 -1.99859508 122.87794478 -3.62748337 122.88624191 C-21.75767559 122.97187756 -38.66850923 118.37239044 -52.13964844 105.50170898 C-64.65526385 92.209749 -70.70061393 76.75778635 -70.56176758 58.546875 C-70.14152598 47.1590166 -66.7816631 36.78452466 -60.13964844 27.50170898 C-59.615 26.73342773 -59.09035156 25.96514648 -58.54980469 25.17358398 C-54.22176487 19.18561361 -49.12782912 14.78674599 -43.13964844 10.50170898 C-42.00076172 9.66446289 -42.00076172 9.66446289 -40.83886719 8.81030273 C-28.62702075 0.62118218 -14.20737291 -0.09495023 0 0 Z " fill="#EBB22D" transform="translate(598.1396484375,527.498291015625)"/>
<path d="M0 0 C1.65509266 -0.00435314 3.31018331 -0.00953829 4.965271 -0.01548767 C9.44069769 -0.0288263 13.91603967 -0.02946192 18.39148235 -0.02692437 C22.13859042 -0.02585084 25.88568161 -0.03074793 29.63278604 -0.03552979 C38.48046407 -0.04660792 47.32809964 -0.04707239 56.17578125 -0.04101562 C65.27629527 -0.03498111 74.37665448 -0.04727747 83.4771421 -0.06858569 C91.31356528 -0.08625354 99.14993942 -0.09219478 106.98638177 -0.08894795 C111.6564278 -0.08714269 116.32636346 -0.08969489 120.9963913 -0.10366249 C125.39270739 -0.11632033 129.78878395 -0.11422224 134.18509674 -0.1012516 C135.78897689 -0.09890322 137.39287432 -0.10155732 138.99673462 -0.10987473 C158.19360103 -0.20216612 174.30985599 3.98773925 189.11035156 16.8293457 C200.10604781 27.72065243 207.48730227 42.71350947 207.88183594 58.2902832 C207.91202492 64.8111033 207.63995691 71.04915768 205.57910156 77.2746582 C205.24910156 78.29043945 204.91910156 79.3062207 204.57910156 80.3527832 C201.92376779 87.8645827 198.53420382 94.04928608 193.57910156 100.2746582 C192.41507812 101.7615918 192.41507812 101.7615918 191.22753906 103.27856445 C181.65488683 114.10780378 166.82246508 120.9618832 152.57910156 122.2746582 C150.15239925 122.36552288 147.72376763 122.41332786 145.29537964 122.42182922 C144.60830181 122.42550591 143.92122399 122.4291826 143.21332562 122.4329707 C140.9353407 122.44389045 138.65740156 122.4478312 136.37939453 122.45166016 C134.73592488 122.45793364 133.09245662 122.46458121 131.44898987 122.47157288 C126.07309945 122.49250947 120.69720908 122.50296515 115.32128906 122.51293945 C113.46301382 122.51699083 111.60473873 122.52110786 109.74646378 122.52528954 C101.01340824 122.54431795 92.28036103 122.55855417 83.54728878 122.5669015 C73.4994595 122.57666688 63.45185092 122.60297807 53.40409935 122.6434024 C45.61524684 122.67365308 37.8264573 122.68837881 30.03754723 122.69168252 C25.39590192 122.69402262 20.754493 122.7028469 16.11291122 122.72814369 C11.74119529 122.75158709 7.36986874 122.75559302 2.998106 122.74538231 C1.40430969 122.74489078 -0.1895069 122.75109656 -1.78324318 122.76493835 C-21.54251545 122.92678545 -37.97754937 117.19199759 -52.42089844 103.2746582 C-64.85222419 88.97969247 -69.27634509 72.89187885 -68.42089844 54.2746582 C-67.16776091 42.19083208 -61.77287607 31.76479487 -54.42089844 22.2746582 C-53.80214844 21.44708008 -53.18339844 20.61950195 -52.54589844 19.7668457 C-38.9158199 3.78156977 -19.887059 -0.03464644 0 0 Z " fill="#36C5EF" transform="translate(288.4208984375,373.725341796875)"/>
<path d="M0 0 C1.36461568 0.98569336 2.72009084 1.98427119 4.0625 3 C5.0525 3.70125 6.0425 4.4025 7.0625 5.125 C19.37918071 15.82919048 26.17893836 31.79199534 27.33948898 47.82710457 C27.48566623 52.12030819 27.46884033 56.41220874 27.45068359 60.70727539 C27.45475863 62.3448776 27.46010569 63.98247706 27.46661377 65.62007141 C27.48018142 70.02912742 27.47503308 74.43797064 27.46547651 78.84702992 C27.45782605 83.48318464 27.46494025 88.11932239 27.46963501 92.75547791 C27.47507644 100.53664385 27.46794289 108.31772406 27.45361328 116.09887695 C27.43728414 125.06885521 27.44258372 134.03862888 27.4590925 143.0086022 C27.47274663 150.73979115 27.47460806 158.47091884 27.46677649 166.20211595 C27.46212223 170.80666893 27.46141288 175.41112603 27.47138596 180.01567268 C27.48011099 184.34557137 27.47393365 188.67520856 27.45670319 193.00507927 C27.45276795 194.58518924 27.45382095 196.16532157 27.46049118 197.74542236 C27.52868481 215.55409924 23.84414114 231.26793058 12.0625 245 C11.15757812 246.22203125 11.15757812 246.22203125 10.234375 247.46875 C4.19687024 254.50526634 -5.22528165 259.95226284 -13.9375 263 C-14.72898437 263.29648437 -15.52046875 263.59296875 -16.3359375 263.8984375 C-31.78211273 268.95439276 -47.79559292 266.24549679 -62.125 259.3125 C-77.05092784 251.67488211 -87.35015684 238.81949293 -92.9375 223 C-95.25808641 213.52660243 -95.22921568 203.97948134 -95.2121582 194.29858398 C-95.21651473 192.64965588 -95.22170098 191.00072979 -95.22764587 189.35180664 C-95.24094251 184.90768237 -95.24162529 180.46364362 -95.23908257 176.01950336 C-95.238007 172.2969095 -95.24291087 168.57433254 -95.247688 164.85174233 C-95.25874977 156.06594341 -95.25923868 147.28018726 -95.25317383 138.49438477 C-95.24712935 129.45454808 -95.25946474 120.41486686 -95.2807439 111.37505668 C-95.29839505 103.58786071 -95.30435593 95.80071407 -95.30110615 88.01349884 C-95.29929957 83.37374227 -95.30186724 78.73409675 -95.31582069 74.09435844 C-95.32845269 69.73165988 -95.32640449 65.369203 -95.31340981 61.00650787 C-95.31105655 59.413073 -95.31373343 57.81962082 -95.32203293 56.22620583 C-95.41199516 37.6004023 -90.3601176 20.56005055 -76.9375 7 C-69.9456906 0.88951112 -62.65154278 -3.78425339 -53.9375 -7 C-53.07769531 -7.31839844 -52.21789062 -7.63679687 -51.33203125 -7.96484375 C-34.40541194 -13.39036279 -14.73364154 -9.62399481 0 0 Z " fill="#E01E5B" transform="translate(468.9375,538)"/>
<path d="M0 0 C12.13175512 8.99970069 22.07424098 23.38555501 24.75390625 38.44140625 C26.60156 57.65113971 22.69640566 74.53398553 10.5625 90 C4.56943185 96.86496937 -1.80459212 101.06735256 -9.8125 105.25 C-10.45195557 105.59184326 -11.09141113 105.93368652 -11.75024414 106.28588867 C-22.21212127 111.52400632 -33.51038529 111.27954469 -44.94921875 111.1953125 C-46.45807201 111.19157333 -47.96692773 111.18873064 -49.4757843 111.18673706 C-53.40976902 111.17917162 -57.34360149 111.15958582 -61.27752686 111.1373291 C-65.30674176 111.11671617 -69.33598173 111.10770262 -73.36523438 111.09765625 C-81.24355875 111.07633177 -89.12176033 111.0422837 -97 111 C-97.06983357 102.06315094 -97.12297929 93.12639734 -97.15543652 84.18933392 C-97.1710226 80.03847734 -97.19213005 75.88780889 -97.22631836 71.73706055 C-97.25916598 67.72348522 -97.27690593 63.71008964 -97.28463173 59.69639015 C-97.29013005 58.17314644 -97.30086553 56.64991138 -97.31719017 55.12674522 C-97.44184342 43.00221918 -95.87156599 32.72088487 -90.3125 21.875 C-89.78813354 20.84826172 -89.78813354 20.84826172 -89.25317383 19.80078125 C-82.07521989 6.23330589 -70.23755861 -2.60729487 -56 -8 C-55.17371094 -8.3196875 -54.34742188 -8.639375 -53.49609375 -8.96875 C-35.45009901 -14.91979559 -15.48547237 -10.4058429 0 0 Z " fill="#2FB67D" transform="translate(779,385)"/>
<path d="M0 0 C1.5565523 0.00373671 3.11310697 0.00658057 4.66966248 0.00857544 C8.7384812 0.01616015 12.80715393 0.0357634 16.87591553 0.0579834 C21.03900173 0.07855392 25.20211185 0.08760097 29.36523438 0.09765625 C37.51308734 0.11901491 45.66082231 0.15308739 53.80859375 0.1953125 C53.90205232 8.78502438 53.97273738 17.37451718 54.01584244 25.96461487 C54.03655043 29.95511068 54.06455252 33.9452539 54.11035156 37.93554688 C54.15441946 41.80003222 54.17785633 45.66418256 54.18810272 49.52890015 C54.19538664 50.98942323 54.20960304 52.44993195 54.23151398 53.91030884 C54.52204223 74.11267802 49.11340866 91.34984317 34.80859375 106.1953125 C21.36552114 117.88580675 5.3739703 123.11003512 -12.34765625 122.46875 C-27.2813521 121.40639359 -42.06902063 114.33192536 -52.19140625 103.1953125 C-64.04535002 89.03103724 -69.65150179 72.65479126 -68.40283203 54.17089844 C-66.79139089 39.11341381 -58.71880825 24.75619405 -47.46875 14.78125 C-32.57300524 3.04520867 -18.49517555 -0.13121136 0 0 Z " fill="#E01F5B" transform="translate(288.19140625,527.8046875)"/>
<path d="M0 0 C12.09077338 9.18628592 20.65612951 22.97943651 23.56001282 37.88356018 C24.42606837 44.24371699 24.2259786 50.66458824 24.1796875 57.0703125 C24.17594958 58.60301528 24.1731063 60.13572047 24.17111206 61.66842651 C24.16353683 65.66982821 24.14394214 69.67108084 24.1217041 73.67242432 C24.10111275 77.76857488 24.09208214 81.86474992 24.08203125 85.9609375 C24.06068941 93.97402615 24.02662889 101.98699444 23.984375 110 C15.09936953 110.09330033 6.21453659 110.16406578 -2.67085457 110.20724869 C-6.798163 110.22799013 -10.92513259 110.25605654 -15.05224609 110.30175781 C-19.04639823 110.34570234 -23.04022761 110.36923773 -27.03460312 110.37950897 C-28.54701686 110.38681431 -30.05941598 110.40107558 -31.57168961 110.42292023 C-49.95423716 110.67752784 -66.7472916 105.6686731 -80.35546875 92.75390625 C-92.5393517 79.88199226 -98.58146626 63.42856307 -98.36523438 45.80566406 C-97.78993337 29.68946169 -89.57193897 14.11183425 -78 3.078125 C-54.59107461 -16.51601255 -24.95083608 -16.54770476 0 0 Z " fill="#36C5EF" transform="translate(472.015625,232)"/>
<path d="M0 0 C8.67610292 -0.04656595 17.3521621 -0.08199148 26.02836323 -0.10362434 C30.05809796 -0.11401277 34.0877465 -0.12808041 38.11743164 -0.15087891 C42.01428753 -0.17278517 45.91106109 -0.18460567 49.80797386 -0.18975449 C51.28654461 -0.19341861 52.76511142 -0.20057262 54.24364662 -0.21146011 C65.80932737 -0.29315402 76.59561509 0.09185037 87 5.5625 C88.01682861 6.08650391 88.01682861 6.08650391 89.05419922 6.62109375 C104.7354171 14.99430737 114.39311619 27.58488411 120.109375 44.23046875 C124.61392075 61.33499389 122.15560654 77.17186725 113.625 92.5 C104.58913099 106.84880486 91.45539607 116.51216471 75 121 C55.42517424 124.25847773 38.67589574 120.69784431 22.515625 109.23828125 C20.5316962 107.58885207 18.75749028 105.88767474 17 104 C16.4225 103.38125 15.845 102.7625 15.25 102.125 C11.34358716 97.52101343 8.45453376 92.46223079 5.6875 87.125 C5.34976563 86.48957275 5.01203125 85.85414551 4.6640625 85.19946289 C-0.52647048 74.75404062 -0.27929263 63.45538465 -0.1953125 52.05078125 C-0.19157333 50.54192799 -0.18873064 49.03307227 -0.18673706 47.5242157 C-0.17917162 43.59023098 -0.15958582 39.65639851 -0.1373291 35.72247314 C-0.11671617 31.69325824 -0.10770262 27.66401827 -0.09765625 23.63476562 C-0.07633177 15.75644125 -0.0422837 7.87823967 0 0 Z " fill="#EBB22E" transform="translate(528,682)"/>
<path d="M0 0 C2.66230863 0.46981917 5.13116135 1.04575396 7.6875 1.9375 C17.49326201 5.08274442 27.05371337 5.28230719 37.26586914 5.24291992 C38.89131751 5.24399457 40.5167655 5.24593596 42.14221191 5.24867249 C46.52794905 5.25349131 50.91358336 5.24590493 55.29930806 5.23571944 C59.89390896 5.2269014 64.48850699 5.22869704 69.08311462 5.2290802 C76.78711661 5.22814598 84.49107901 5.21949029 92.19506836 5.20581055 C101.11117959 5.19003738 110.02724766 5.18481429 118.94337183 5.1855461 C127.52374627 5.18615529 136.10410664 5.1810631 144.68447685 5.17275429 C148.33718412 5.16921753 151.9898864 5.1673905 155.64259529 5.16686058 C159.93294237 5.16585979 164.22325291 5.15978501 168.51358795 5.14969444 C170.09186772 5.14676248 171.67015168 5.14554547 173.24843407 5.14612198 C175.39332838 5.1466092 177.53811876 5.14099176 179.68299866 5.13371277 C180.88585542 5.13203692 182.08871218 5.13036108 183.32801914 5.12863445 C185.92016893 5.30392661 185.92016893 5.30392661 187 4 C188.36882212 3.78850817 189.74613294 3.63087552 191.125 3.5 C195.10373843 3.09894317 199.04500194 2.58904226 203 2 C197.36366504 7.63633496 187.21298024 7.12092636 179.71627808 7.14717102 C178.68566134 7.15268605 178.68566134 7.15268605 177.63422406 7.1583125 C175.35623914 7.16923225 173.07829999 7.173173 170.80029297 7.17700195 C169.15682332 7.18327544 167.51335506 7.18992301 165.86988831 7.19691467 C160.49399789 7.21785126 155.11810752 7.22830695 149.7421875 7.23828125 C147.88391226 7.24233262 146.02563716 7.24644966 144.16736221 7.25063133 C135.43430668 7.26965975 126.70125947 7.28389597 117.96818721 7.2922433 C107.92035794 7.30200868 97.87274935 7.32831987 87.82499778 7.36874419 C80.03614528 7.39899487 72.24735574 7.41372061 64.45844567 7.41702431 C59.81680035 7.41936441 55.17539144 7.4281887 50.53380966 7.45348549 C46.16209373 7.47692889 41.79076718 7.48093482 37.41900444 7.47072411 C35.82520812 7.47023258 34.23139154 7.47643836 32.63765526 7.49028015 C21.5834113 7.58082485 8.87425995 7.50960542 0 0 Z " fill="#51BDDD" transform="translate(254,489)"/>
<path d="M0 0 C23.67801877 -0.07001467 47.35602207 -0.12295114 71.03412342 -0.15543652 C82.02774829 -0.17091951 93.02130893 -0.19203635 104.01489258 -0.22631836 C113.5945077 -0.25617692 123.17407631 -0.27556458 132.75373667 -0.28226548 C137.82826696 -0.28618376 142.90266415 -0.29542189 147.97715187 -0.31719017 C152.75002241 -0.33749938 157.5227046 -0.34384511 162.29561424 -0.33932304 C164.05043943 -0.34015075 165.80527068 -0.34614945 167.56005859 -0.35761642 C169.95021059 -0.37247372 172.33964511 -0.36897876 174.72981262 -0.36076355 C175.42922669 -0.36950207 176.12864075 -0.3782406 176.84924918 -0.38724393 C179.81213397 -0.35958909 181.57278327 -0.33281943 183.95438671 1.52254772 C184.2994391 2.01010697 184.64449148 2.49766623 185 3 C183.85433563 2.83832336 182.70867126 2.67664673 181.52828979 2.5100708 C174.22490926 1.7059539 166.88480877 1.84366582 159.54736328 1.83886719 C157.88902681 1.83423167 156.23069139 1.82920604 154.57235718 1.82382202 C150.08882384 1.8107705 145.60530542 1.80426783 141.12175608 1.79981136 C138.31566451 1.79687013 135.50957694 1.79276349 132.7034874 1.78830719 C123.90903625 1.77465411 115.11459433 1.7649756 106.32013333 1.7611053 C96.19478413 1.7566236 86.06956986 1.73906124 75.94426167 1.7101047 C68.09768594 1.68844916 60.25114808 1.67839903 52.4045428 1.67706418 C47.72672563 1.67601934 43.04903567 1.67017958 38.37125015 1.65224457 C33.97002931 1.63569569 29.56903044 1.63364125 25.16778946 1.64238358 C23.5598389 1.64315019 21.95187604 1.63886118 20.34395599 1.62892532 C11.47567903 1.57737194 3.46971347 2.05509467 -5 5 C-5.90851652 5.29538036 -6.81703304 5.59076073 -7.75308037 5.89509201 C-9.84346623 6.57551639 -11.92395353 7.27722827 -14 8 C-14 7.34 -14 6.68 -14 6 C-10.91190305 4.23537317 -9.76687864 4 -6 4 C-6 3.34 -6 2.68 -6 2 C-4.02 2 -2.04 2 0 2 C0 1.34 0 0.68 0 0 Z " fill="#E1FEFE" transform="translate(266,373)"/>
<path d="M0 0 C-3.57965432 2.38643621 -6.10252369 2.27509929 -10.23222351 2.24050903 C-10.97390976 2.24221788 -11.71559601 2.24392673 -12.47975761 2.24568737 C-14.97187269 2.24898886 -17.46372016 2.23796783 -19.95581055 2.22705078 C-21.73948154 2.22648681 -23.523153 2.22680295 -25.30682373 2.22793579 C-30.15570546 2.22851085 -35.00448874 2.21673174 -39.85334754 2.20278788 C-44.91824329 2.19030605 -49.98314117 2.18911203 -55.04804993 2.18673706 C-64.64215739 2.18051479 -74.2362194 2.16409387 -83.83030683 2.14403808 C-94.75156491 2.12170231 -105.67282513 2.1106915 -116.59410036 2.10064721 C-139.06275879 2.07972829 -161.53137685 2.0445378 -184 2 C-184 1.34 -184 0.68 -184 0 C-183.09663029 0.00092179 -182.19326057 0.00184359 -181.26251602 0.00279331 C-159.2965454 0.02486344 -137.33057669 0.04141884 -115.36459732 0.05181217 C-104.74208427 0.05697171 -94.11957862 0.06400791 -83.49707031 0.07543945 C-74.24009819 0.08539672 -64.98313142 0.09185592 -55.72615409 0.09408849 C-50.8232302 0.09539382 -45.92032163 0.09846849 -41.01740265 0.10573006 C-36.40462431 0.11250669 -31.79186763 0.11461359 -27.17908478 0.11310768 C-25.48435346 0.11338327 -23.78962143 0.11537866 -22.09489441 0.11920547 C-19.78412239 0.12416834 -17.47343255 0.12298865 -15.16265869 0.12025452 C-13.86846134 0.12117631 -12.57426399 0.1220981 -11.24084854 0.12304783 C-0.84514561 -0.27165395 -0.84514561 -0.27165395 0 0 Z " fill="#FEF9D7" transform="translate(760,649)"/>
<path d="M0 0 C2.86087196 5.72174392 3.12512501 10.68174721 3.11352539 17.01513672 C3.11367142 17.68900925 3.11381744 18.36288177 3.1139679 19.05717468 C3.11327621 21.26471273 3.10551897 23.47216436 3.09765625 25.6796875 C3.09578942 27.21810866 3.09436677 28.75653042 3.09336853 30.29495239 C3.08956419 34.32924055 3.07975184 38.36349227 3.06866455 42.39776611 C3.0584055 46.52038073 3.05386131 50.64300128 3.04882812 54.765625 C3.03812757 62.84376665 3.02107635 70.92187878 3 79 C-5.88500547 79.09330033 -14.76983841 79.16406578 -23.65522957 79.20724869 C-27.782538 79.22799013 -31.90950759 79.25605654 -36.03662109 79.30175781 C-40.03077323 79.34570234 -44.02460261 79.36923773 -48.01897812 79.37950897 C-49.53139186 79.38681431 -51.04379098 79.40107558 -52.55606461 79.42292023 C-63.56047825 79.57533694 -76.16738626 79.47803328 -85 72 C-82.05340937 72.41115218 -79.42818161 72.81484039 -76.6875 74 C-73.41742774 75.21677107 -70.35259298 75.47305123 -66.890625 75.75390625 C-65 76 -65 76 -64 77 C-61.94521547 77.12380838 -59.8862104 77.17798203 -57.82788086 77.20532227 C-56.86205833 77.22017166 -56.86205833 77.22017166 -55.87672424 77.23532104 C-53.73946869 77.26701528 -51.60219087 77.29172449 -49.46484375 77.31640625 C-47.98653064 77.33696896 -46.50822351 77.35796524 -45.02992249 77.37937927 C-41.13207829 77.43467059 -37.23418042 77.48404857 -33.33624268 77.53222656 C-28.66309464 77.59120423 -23.99004507 77.65747088 -19.31697845 77.72252655 C-12.21137891 77.82062487 -5.10571729 77.90941993 2 78 C2 56.55 2 35.1 2 13 C1.34 13 0.68 13 0 13 C0 8.71 0 4.42 0 0 Z " fill="#51BCDB" transform="translate(493,263)"/>
<path d="M0 0 C1.77074917 -0.02705729 3.54161711 -0.04642195 5.3125 -0.0625 C6.29863281 -0.07410156 7.28476562 -0.08570313 8.30078125 -0.09765625 C11 0 11 0 14 1 C16.2317797 1.10394517 18.46656116 1.14648607 20.70072937 1.15821838 C21.38524589 1.16315636 22.06976241 1.16809434 22.77502185 1.17318195 C25.07356353 1.18856592 27.37207727 1.19691999 29.6706543 1.20532227 C31.31639859 1.21490008 32.96214041 1.22491011 34.60787964 1.23532104 C39.08068409 1.2623866 43.5534991 1.28338723 48.02634025 1.30332303 C52.69887966 1.32517239 57.37138644 1.35256622 62.04389954 1.37937927 C70.89423201 1.42932036 79.74458258 1.47425394 88.5949505 1.51740164 C98.66981969 1.56676191 108.74465613 1.62168452 118.81949365 1.67708123 C139.5462986 1.79092302 160.2731348 1.89775728 181 2 C181 2.33 181 2.66 181 3 C158.72943164 3.046755 136.4588714 3.08200601 114.18826389 3.10362434 C103.84725362 3.11392964 93.50627388 3.12797573 83.1652832 3.15087891 C74.1503435 3.1708356 65.13542592 3.18372186 56.12046474 3.18817699 C51.34870506 3.1907805 46.57700862 3.19688439 41.80526924 3.21146011 C37.30982851 3.22508003 32.81447682 3.22921374 28.31901741 3.22621536 C26.67314672 3.22676356 25.02727292 3.23071465 23.38142014 3.23841095 C15.35163354 3.27410371 7.79166426 3.22683976 0 1 C0 0.67 0 0.34 0 0 Z " fill="#E0B451" transform="translate(571,647)"/>
<path d="M0 0 C0.33 0 0.66 0 1 0 C1.00423194 0.85882971 1.00846388 1.71765942 1.01282406 2.60251427 C1.11601148 23.47459573 1.22463119 44.34664272 1.33933926 65.21866417 C1.39467882 75.31210535 1.44816202 85.40555007 1.49731445 95.49902344 C1.54014731 104.29381093 1.58642302 113.08857231 1.63687855 121.8833195 C1.66348673 126.54247827 1.68833998 131.20163184 1.70907402 135.86082077 C1.72862589 140.24215972 1.75276529 144.62344895 1.78049088 149.00474358 C1.789869 150.61645164 1.79754154 152.22817062 1.80341911 153.83989525 C1.81166739 156.03316014 1.82594035 158.22630393 1.84178162 160.41952515 C1.84823417 161.64919699 1.85468672 162.87886883 1.8613348 164.14580345 C1.80509429 166.94625862 1.80509429 166.94625862 3 169 C3.13415472 171.6723621 3.04318541 174.32250488 3 177 C-0.14103705 172.28844442 -0.12440359 168.69126656 -0.12025452 163.06512451 C-0.12110894 162.36750291 -0.12196337 161.66988131 -0.12284368 160.95111966 C-0.12449042 158.61419686 -0.1189903 156.27734588 -0.11352539 153.94042969 C-0.11324332 152.26498415 -0.11340164 150.58953849 -0.1139679 148.91409302 C-0.11425509 144.36487738 -0.1083709 139.81568805 -0.10139394 135.26647854 C-0.09514748 130.51255361 -0.09455558 125.7586281 -0.09336853 121.00469971 C-0.09025903 112.00208821 -0.08205077 102.99948883 -0.07201904 93.99688268 C-0.06084608 83.74789346 -0.05534447 73.49890367 -0.05032361 63.24990988 C-0.03986786 42.16659981 -0.02227577 21.08330067 0 0 Z " fill="#45AA82" transform="translate(528,274)"/>
<path d="M0 0 C0.66 0 1.32 0 2 0 C1.78937424 0.74606003 1.57874847 1.49212006 1.36174011 2.26078796 C-1.01768726 11.44529272 -1.47259706 20.17610779 -1.51171875 29.58203125 C-1.52860967 31.13288247 -1.54676564 32.68372037 -1.56611633 34.23454285 C-1.61314449 38.27031283 -1.64325628 42.30602882 -1.66955566 46.34197998 C-1.69960259 50.47874618 -1.74604837 54.61532697 -1.79101562 58.75195312 C-1.87651012 66.83454327 -1.94409139 74.91715124 -2 83 C-2.33 83 -2.66 83 -3 83 C-3.06966926 73.35941673 -3.12289695 63.71892083 -3.15543652 54.07814026 C-3.17105796 49.60099359 -3.19223151 45.12401983 -3.22631836 40.64697266 C-3.25903794 36.32218742 -3.27687948 31.99756797 -3.28463173 27.67266846 C-3.2901527 26.02693067 -3.30093367 24.38120142 -3.31719017 22.73553467 C-3.33913256 20.42115029 -3.34196002 18.10744127 -3.34057617 15.79296875 C-3.34723801 14.4783667 -3.35389984 13.16376465 -3.36076355 11.80932617 C-2.93858264 7.35149009 -1.73103258 4.11236567 0 0 Z " fill="#E1FEF4" transform="translate(684,413)"/>
<path d="M0 0 C0.33 0 0.66 0 1 0 C1.02689216 1.47906892 1.04634621 2.95827483 1.0625 4.4375 C1.07410156 5.26121094 1.08570313 6.08492187 1.09765625 6.93359375 C1 9 1 9 0 10 C-0.16666667 13.5 -0.16666667 13.5 0 17 C0.33 17.33 0.66 17.66 1 18 C1.1080023 20.10304477 1.18558987 22.20766909 1.25 24.3125 C1.77946748 32.80133924 4.28600895 39.92901343 9 47 C8.67 47.99 8.34 48.98 8 50 C0.16900473 35.6896607 -5.65171989 19.46987608 -0.98046875 3.0234375 C-0.65691406 2.02570312 -0.33335937 1.02796875 0 0 Z " fill="#CF3666" transform="translate(222,573)"/>
<path d="M0 0 C0.66 0 1.32 0 2 0 C2.20496094 0.71027344 2.40992188 1.42054688 2.62109375 2.15234375 C2.89050781 3.07144531 3.15992188 3.99054687 3.4375 4.9375 C3.83775391 6.31228516 3.83775391 6.31228516 4.24609375 7.71484375 C4.79026051 9.9402493 4.79026051 9.9402493 6 11 C7.23382967 25.48941491 7.04927151 40.91756818 0 54 C-0.66 54 -1.32 54 -2 54 C-1.5625 52.54166667 -1.125 51.08333333 -0.6875 49.625 C-0.41679688 48.70203125 -0.14609375 47.7790625 0.1328125 46.828125 C0.66441757 45.09442199 1.23422 43.37119316 1.8671875 41.671875 C6.82668247 27.78528909 3.57019639 13.77075749 0 0 Z " fill="#FCF0CA" transform="translate(645,718)"/>
<path d="M0 0 C0 0.66 0 1.32 0 2 C-5.75 5 -5.75 5 -8 5 C-8.226875 5.55171875 -8.45375 6.1034375 -8.6875 6.671875 C-10.38725926 9.68692417 -12.54804816 11.81230369 -15 14.25 C-15.886875 15.14203125 -16.77375 16.0340625 -17.6875 16.953125 C-20 19 -20 19 -22 19 C-22.66 20.32 -23.32 21.64 -24 23 C-24 17.877857 -20.34296459 14.65888049 -17 11 C-4.89147287 0 -4.89147287 0 0 0 Z " fill="#46B587" transform="translate(716,381)"/>
<path d="M0 0 C5.94 0.66 11.88 1.32 18 2 C18 2.66 18 3.32 18 4 C19.45880109 3.85892253 20.91703551 3.71197585 22.375 3.5625 C23.18710937 3.48128906 23.99921875 3.40007813 24.8359375 3.31640625 C27.04272805 3.10909886 27.04272805 3.10909886 29 2 C30.87379605 1.92966231 32.75001102 1.9156978 34.625 1.9375 C36.12933594 1.95103516 36.12933594 1.95103516 37.6640625 1.96484375 C38.43492187 1.97644531 39.20578125 1.98804688 40 2 C32.28746954 7.14168698 19.35175462 5.88525264 10.36328125 4.3984375 C2.52674326 2.52674326 2.52674326 2.52674326 0 0 Z " fill="#E5BB59" transform="translate(566,799)"/>
<path d="M0 0 C3.59444632 3.10429455 4.87539736 6.32831495 5.22705078 11.04614258 C5.21134033 12.70359497 5.21134033 12.70359497 5.1953125 14.39453125 C5.18564453 16.19760742 5.18564453 16.19760742 5.17578125 18.03710938 C5.15902344 19.28298828 5.14226563 20.52886719 5.125 21.8125 C5.11597656 23.07771484 5.10695313 24.34292969 5.09765625 25.64648438 C5.07412394 28.76451564 5.04124545 31.88216097 5 35 C4.34 35 3.68 35 3 35 C3 36.98 3 38.96 3 41 C2.34 41 1.68 41 1 41 C1.875 33.375 1.875 33.375 3 30 C3.55493535 19.59496222 3.29199376 9.9935525 0 0 Z " fill="#FDF2CC" transform="translate(800,568)"/>
<path d="M0 0 C0.99 0.33 1.98 0.66 3 1 C2.40832031 1.73863281 1.81664062 2.47726562 1.20703125 3.23828125 C-5.27646603 11.5621187 -9.96469569 19.79034004 -13 30 C-13.33 30 -13.66 30 -14 30 C-14.21278058 25.53160785 -13.59138085 22.17737474 -12 18 C-11.34 18 -10.68 18 -10 18 C-9.855625 17.21625 -9.71125 16.4325 -9.5625 15.625 C-9 13 -9 13 -8 11 C-7.34 11 -6.68 11 -6 11 C-6 10.01 -6 9.02 -6 8 C-5.34 8 -4.68 8 -4 8 C-4 7.01 -4 6.02 -4 5 C-3.34 5 -2.68 5 -2 5 C-2 4.34 -2 3.68 -2 3 C-1.34 3 -0.68 3 0 3 C0 2.01 0 1.02 0 0 Z " fill="#D7F9FE" transform="translate(235,391)"/>
<path d="M0 0 C5.59576042 8.39364063 4.99173594 20.3570791 3.546875 30.03515625 C3.10196147 32.04044511 2.56429161 34.02497938 2 36 C1.67 36 1.34 36 1 36 C0.97311849 34.35425434 0.95365877 32.70838587 0.9375 31.0625 C0.92589844 30.14597656 0.91429687 29.22945313 0.90234375 28.28515625 C1 26 1 26 2 25 C2.09851171 23.16884117 2.12972629 21.33380067 2.125 19.5 C2.12757813 18.4996875 2.13015625 17.499375 2.1328125 16.46875 C2.27870382 14.05600378 2.27870382 14.05600378 1 13 C0.76518307 10.81707226 0.58636677 8.62796826 0.4375 6.4375 C0.35371094 5.23996094 0.26992188 4.04242188 0.18359375 2.80859375 C0.12300781 1.88175781 0.06242187 0.95492188 0 0 Z " fill="#5BC6E4" transform="translate(492,415)"/>
<path d="M0 0 C0.66 0 1.32 0 2 0 C2.02886537 4.31248609 2.04675255 8.62494762 2.0625 12.9375 C2.07087891 14.16919922 2.07925781 15.40089844 2.08789062 16.66992188 C2.09111328 17.83974609 2.09433594 19.00957031 2.09765625 20.21484375 C2.10289307 21.29886475 2.10812988 22.38288574 2.11352539 23.49975586 C2 26 2 26 1 27 C0.855625 28.093125 0.71125 29.18625 0.5625 30.3125 C0.08526936 33.44101199 -0.40460685 35.34101141 -2 38 C-2.66 38 -3.32 38 -4 38 C-3.71125 36.93265625 -3.4225 35.8653125 -3.125 34.765625 C-0.13421936 23.01308325 0.45437762 12.09149339 0 0 Z " fill="#DEFCF0" transform="translate(803,422)"/>
<path d="M0 0 C0.33 1.32 0.66 2.64 1 4 C0.34 4 -0.32 4 -1 4 C-0.97035156 4.87398437 -0.94070313 5.74796875 -0.91015625 6.6484375 C-0.99813418 9.93039682 -1.53310434 12.48341508 -2.4375 15.625 C-4.06087822 21.73564064 -4.67601476 27.69904562 -5 34 C-5.33 34 -5.66 34 -6 34 C-6.54298266 22.52194981 -6.62305939 9.93458908 0 0 Z " fill="#E5BC5D" transform="translate(534,562)"/>
<path d="M0 0 C1.13208339 3.52203722 1.13208339 3.52203722 0.5390625 5.66796875 C-0.22080552 8.95522389 -0.19065381 12.20684991 -0.1875 15.5625 C-0.18814453 16.26761719 -0.18878906 16.97273437 -0.18945312 17.69921875 C-0.13030427 23.61410418 0.63291385 29.23870836 2 35 C-0.64224737 32.47263295 -1.93921055 31.11229365 -2.14526367 27.34204102 C-2.16970417 23.74876269 -2.18565819 20.15586809 -2.1875 16.5625 C-2.19974609 15.30888672 -2.21199219 14.05527344 -2.22460938 12.76367188 C-2.22654297 11.56419922 -2.22847656 10.36472656 -2.23046875 9.12890625 C-2.23457764 8.02619385 -2.23868652 6.92348145 -2.24291992 5.78735352 C-2 3 -2 3 0 0 Z " fill="#FEF3D1" transform="translate(529,572)"/>
<path d="M0 0 C0.66 0 1.32 0 2 0 C1.67 1.155 1.34 2.31 1 3.5 C-1.10601755 12.92480193 -0.5798867 23.52067979 1 33 C0.01 32.34 -0.98 31.68 -2 31 C-2.37231445 28.25024414 -2.37231445 28.25024414 -2.36328125 24.78515625 C-2.36263672 23.54185547 -2.36199219 22.29855469 -2.36132812 21.01757812 C-2.34521484 19.71240234 -2.32910156 18.40722656 -2.3125 17.0625 C-2.31572266 15.76119141 -2.31894531 14.45988281 -2.32226562 13.11914062 C-2.26690226 3.40035339 -2.26690226 3.40035339 0 0 Z " fill="#FDDDEC" transform="translate(221,571)"/>
<path d="M0 0 C0 0.66 0 1.32 0 2 C-3.94908214 3.85725751 -7.04767897 4.23651489 -11.39453125 4.1953125 C-12.59658203 4.18886719 -13.79863281 4.18242188 -15.03710938 4.17578125 C-16.28298828 4.15902344 -17.52886719 4.14226563 -18.8125 4.125 C-20.71032227 4.11146484 -20.71032227 4.11146484 -22.64648438 4.09765625 C-25.76451564 4.07412394 -28.88216097 4.04124545 -32 4 C-32.33 3.34 -32.66 2.68 -33 2 C-32.41621582 2.01047363 -31.83243164 2.02094727 -31.23095703 2.03173828 C-28.52901699 2.07388108 -25.82714649 2.09950805 -23.125 2.125 C-22.2071875 2.14175781 -21.289375 2.15851562 -20.34375 2.17578125 C-14.68302303 2.21564552 -9.5129936 1.69925449 -3.99169922 0.43310547 C-2 0 -2 0 0 0 Z " fill="#FFEAF6" transform="translate(300,647)"/>
<path d="M0 0 C0.33 0 0.66 0 1 0 C1.37542732 5.13083998 0.18632832 8.38441799 -2 13 C-2.45375 14.175625 -2.9075 15.35125 -3.375 16.5625 C-5.17920169 20.3790805 -7.18720641 22.88312062 -10 26 C-10.66 25.67 -11.32 25.34 -12 25 C-11.32904297 24.05253906 -11.32904297 24.05253906 -10.64453125 23.0859375 C-5.63109731 15.66733802 -2.68586438 8.47841982 0 0 Z " fill="#FCD3E3" transform="translate(494,756)"/>
<path d="M0 0 C1.125 3.75 1.125 3.75 0 6 C-0.20329268 7.82963411 -0.36472196 9.66408368 -0.5 11.5 C-0.88888889 16.77777778 -0.88888889 16.77777778 -2 19 C-2.2275015 20.87056791 -2.40962811 22.74685958 -2.5625 24.625 C-2.64628906 25.62789063 -2.73007812 26.63078125 -2.81640625 27.6640625 C-2.87699219 28.43492187 -2.93757813 29.20578125 -3 30 C-3.33 30 -3.66 30 -4 30 C-4.32248539 20.48070911 -4.21335356 12.10727667 -1 3 C-0.67 2.01 -0.34 1.02 0 0 Z " fill="#61C8E6" transform="translate(378,258)"/>
<path d="M0 0 C1.5478418 -0.00483398 1.5478418 -0.00483398 3.12695312 -0.00976562 C11.44606295 0.04961803 11.44606295 0.04961803 15.3125 2.3125 C14.70889648 2.29678955 14.10529297 2.2810791 13.48339844 2.26489258 C-2.85112565 1.78755095 -2.85112565 1.78755095 -18.6875 5.3125 C-18.6875 4.6525 -18.6875 3.9925 -18.6875 3.3125 C-12.43965185 -0.02732292 -6.99899003 -0.11053364 0 0 Z " fill="#DAFBFE" transform="translate(432.6875,218.6875)"/>
<path d="M0 0 C2.94659063 0.41115218 5.57181839 0.81484039 8.3125 2 C11.58257226 3.21677107 14.64740702 3.47305123 18.109375 3.75390625 C20 4 20 4 21 5 C23.32817964 5.36760731 25.6618385 5.70241581 28 6 C28 6.33 28 6.66 28 7 C19.1526496 7.7338816 9.06351232 6.43302858 1.5859375 1.36328125 C1.06257813 0.91339844 0.53921875 0.46351563 0 0 Z " fill="#5CC6E4" transform="translate(408,335)"/>
<path d="M0 0 C-3.49336818 2.32891212 -4.86007865 2.23551143 -8.98046875 2.1953125 C-10.72553711 2.18564453 -10.72553711 2.18564453 -12.50585938 2.17578125 C-13.72080078 2.15902344 -14.93574219 2.14226562 -16.1875 2.125 C-17.41404297 2.11597656 -18.64058594 2.10695313 -19.90429688 2.09765625 C-22.93639295 2.07406017 -25.96809938 2.04113841 -29 2 C-29.33 1.34 -29.66 0.68 -30 0 C-29.08504761 0.00785522 -29.08504761 0.00785522 -28.15161133 0.01586914 C-25.37191815 0.03673335 -22.59224149 0.04969013 -19.8125 0.0625 C-18.85279297 0.07087891 -17.89308594 0.07925781 -16.90429688 0.08789062 C-15.97294922 0.09111328 -15.04160156 0.09433594 -14.08203125 0.09765625 C-13.22843018 0.10289307 -12.3748291 0.10812988 -11.49536133 0.11352539 C-1.08083678 -0.36027893 -1.08083678 -0.36027893 0 0 Z " fill="#DEFBF1" transform="translate(605,495)"/>
<path d="M0 0 C2.65416564 0.46838217 5.1108753 1.03913246 7.65625 1.9375 C11.5307508 3.16864979 15.37828423 3.91672126 19.375 4.625 C20.11105469 4.7590625 20.84710938 4.893125 21.60546875 5.03125 C23.40294172 5.35806327 25.20137633 5.67958011 27 6 C27 6.33 27 6.66 27 7 C17.87654768 7.62920361 7.13435655 6.14787762 0 0 Z " fill="#5FC7E4" transform="translate(254,489)"/>
<path d="M0 0 C0.67578125 1.734375 0.67578125 1.734375 1 4 C-0.14453125 6.140625 -0.14453125 6.140625 -1.8125 8.25 C-2.35519531 8.95640625 -2.89789062 9.6628125 -3.45703125 10.390625 C-3.96621094 10.92171875 -4.47539063 11.4528125 -5 12 C-5.66 12 -6.32 12 -7 12 C-7.28875 12.61875 -7.5775 13.2375 -7.875 13.875 C-9 16 -9 16 -11 18 C-11.99 17.67 -12.98 17.34 -14 17 C-13.38125 16.7525 -12.7625 16.505 -12.125 16.25 C-9.55085837 14.73579904 -9.30204649 13.64142764 -8 11 C-6.8435439 9.43491161 -5.65408175 7.89382231 -4.4375 6.375 C-1.9803419 3.33933997 -1.9803419 3.33933997 0 0 Z " fill="#D5F7E8" transform="translate(642,464)"/>
<path d="M0 0 C0.66 0.33 1.32 0.66 2 1 C0.21479439 3.00611734 -1.57758712 5.0048717 -3.375 7 C-3.88289062 7.57234375 -4.39078125 8.1446875 -4.9140625 8.734375 C-6.23504905 10.19441277 -7.61400799 11.60152157 -9 13 C-9.66 13 -10.32 13 -11 13 C-11 13.66 -11 14.32 -11 15 C-11.66 14.67 -12.32 14.34 -13 14 C-11.77801556 12.41111701 -10.54705525 10.82913536 -9.3125 9.25 C-8.28576172 7.92742187 -8.28576172 7.92742187 -7.23828125 6.578125 C-5.01538057 4.01771584 -2.70749594 2.02943654 0 0 Z " fill="#48B487" transform="translate(552,232)"/>
<path d="M0 0 C0 0.66 0 1.32 0 2 C-0.56847656 2.268125 -1.13695312 2.53625 -1.72265625 2.8125 C-7.84706755 5.92071542 -11.81801573 9.58090141 -16 15 C-16.99 14.67 -17.98 14.34 -19 14 C-5.41176471 0 -5.41176471 0 0 0 Z " fill="#51C2E4" transform="translate(408,227)"/>
<path d="M0 0 C1.07591401 3.38029701 0.97215966 6.17368132 0.625 9.6875 C0.53476563 10.66074219 0.44453125 11.63398438 0.3515625 12.63671875 C0 15 0 15 -1 16 C-1.23287008 17.68183948 -1.41264166 19.3712416 -1.5625 21.0625 C-1.64628906 21.98160156 -1.73007813 22.90070313 -1.81640625 23.84765625 C-1.87699219 24.55792969 -1.93757812 25.26820313 -2 26 C-2.33 26 -2.66 26 -3 26 C-3.25590157 16.92971094 -2.882383 8.647149 0 0 Z " fill="#59C4E5" transform="translate(223,415)"/>
<path d="M0 0 C0.33 0.66 0.66 1.32 1 2 C-1.0990137 6.72278082 -4.70696177 10.20999485 -9 13 C-11.9375 13.375 -11.9375 13.375 -14 13 C-12.948125 12.1646875 -12.948125 12.1646875 -11.875 11.3125 C-10.92625 10.549375 -9.9775 9.78625 -9 9 C-8.484375 8.59136719 -7.96875 8.18273437 -7.4375 7.76171875 C-4.51882777 5.40489092 -2.08470655 3.12705983 0 0 Z " fill="#FCD8E6" transform="translate(481,782)"/>
<path d="M0 0 C0.99 0.495 0.99 0.495 2 1 C2 2.32 2 3.64 2 5 C2.66 5 3.32 5 4 5 C4.28875 5.969375 4.5775 6.93875 4.875 7.9375 C5.64214682 11.10664203 5.64214682 11.10664203 8 12 C9.1875 14.375 9.1875 14.375 10 17 C9.67 17.99 9.34 18.98 9 20 C0 5.52427184 0 5.52427184 0 0 Z " fill="#54C2E2" transform="translate(223,452)"/>
<path d="M0 0 C3.73165992 1.59110358 4.87163565 3.13842489 6.484375 6.90820312 C6.73703125 7.53662109 6.9896875 8.16503906 7.25 8.8125 C7.518125 9.42931641 7.78625 10.04613281 8.0625 10.68164062 C9.54681069 14.24474359 10.32343816 17.14079465 10 21 C8.64641265 18.31389281 7.33343306 15.61311556 6.0546875 12.890625 C5.52294922 11.75947266 5.52294922 11.75947266 4.98046875 10.60546875 C4.61566406 9.82816406 4.25085938 9.05085937 3.875 8.25 C3.50246094 7.45722656 3.12992187 6.66445312 2.74609375 5.84765625 C1.83029223 3.89864275 0.91508737 1.94934891 0 0 Z " fill="#D7FBFE" transform="translate(485,246)"/>
<path d="M0 0 C1 3 1 3 -0.1875 6.0625 C-2.06377498 9.10335946 -2.87079769 9.64401233 -6 11 C-6.33 11.99 -6.66 12.98 -7 14 C-7.33 13.34 -7.66 12.68 -8 12 C-6.6015625 9.43359375 -6.6015625 9.43359375 -4.625 6.4375 C-3.65433594 4.95056641 -3.65433594 4.95056641 -2.6640625 3.43359375 C-1 1 -1 1 0 0 Z " fill="#E6B94E" transform="translate(543,548)"/>
<path d="M0 0 C0 0.66 0 1.32 0 2 C-1.63183107 3.05589069 -3.30792999 4.0436126 -5 5 C-8.84395065 7.48255146 -12.46752194 10.09090042 -16 13 C-16.66 12.67 -17.32 12.34 -18 12 C-16.27427512 10.55836993 -14.5442653 9.12186835 -12.8125 7.6875 C-11.84957031 6.88699219 -10.88664063 6.08648438 -9.89453125 5.26171875 C-3.16062176 0 -3.16062176 0 0 0 Z " fill="#E3BB57" transform="translate(562,535)"/>
<path d="M0 0 C0.62890625 1.84765625 0.62890625 1.84765625 1 4 C-2.21971104 7.80511304 -6.14251283 10.86018486 -10 14 C-10.66 13.67 -11.32 13.34 -12 13 C-11.55269531 12.64808594 -11.10539063 12.29617188 -10.64453125 11.93359375 C-6.25049472 8.34528673 -3.12438167 4.73391163 0 0 Z " fill="#FBF0CC" transform="translate(638,778)"/>
<path d="M0 0 C1.921875 0.7421875 1.921875 0.7421875 4 2 C5.11714584 4.62423881 5.45369812 7.17744031 6 10 C6.66 10 7.32 10 8 10 C8 12.64 8 15.28 8 18 C6.09387022 14.33578935 4.48877043 10.54892369 2.875 6.75 C2.59785156 6.1003125 2.32070313 5.450625 2.03515625 4.78125 C1.35566896 3.18796947 0.67768372 1.5940485 0 0 Z " fill="#DBFBEE" transform="translate(795,403)"/>
<path d="M0 0 C2.64 0 5.28 0 8 0 C8 0.66 8 1.32 8 2 C8.763125 2.144375 9.52625 2.28875 10.3125 2.4375 C13 3 13 3 16 4 C16 4.66 16 5.32 16 6 C10.63904723 4.41078475 5.29156027 2.81027062 0 1 C0 0.67 0 0.34 0 0 Z " fill="#FBEEC8" transform="translate(756,529)"/>
<path d="M0 0 C2.02168235 4.0433647 2.35927761 6.32129345 2.625 10.75 C2.69976562 11.92046875 2.77453125 13.0909375 2.8515625 14.296875 C2.90054687 15.18890625 2.94953125 16.0809375 3 17 C2.67 15.68 2.34 14.36 2 13 C1.34 13 0.68 13 0 13 C0 8.71 0 4.42 0 0 Z " fill="#5CC7E7" transform="translate(493,263)"/>
<path d="M0 0 C11.52164009 -0.3690205 11.52164009 -0.3690205 17 2 C17 2.33 17 2.66 17 3 C10.9981863 3.21824777 5.80766296 2.5056904 0 1 C0 0.67 0 0.34 0 0 Z " fill="#E6BE5C" transform="translate(571,647)"/>
<path d="M0 0 C0.99 0.66 1.98 1.32 3 2 C1.39612733 3.1254191 -0.20810916 4.25031972 -1.8125 5.375 C-2.70582031 6.00148438 -3.59914062 6.62796875 -4.51953125 7.2734375 C-6.33267878 8.53550239 -8.16188211 9.77458808 -10 11 C-9.8125 9.125 -9.8125 9.125 -9 7 C-6.4375 5.75 -6.4375 5.75 -4 5 C-4 4.34 -4 3.68 -4 3 C-2.68 2.67 -1.36 2.34 0 2 C0 1.34 0 0.68 0 0 Z " fill="#D4F9FD" transform="translate(249,380)"/>
<path d="M0 0 C3.67056937 1.47797262 5.41085783 3.47615477 7.75 6.625 C8.67039062 7.85089844 8.67039062 7.85089844 9.609375 9.1015625 C10.29773438 10.04128906 10.29773438 10.04128906 11 11 C10.67 11.66 10.34 12.32 10 13 C9.401875 12.21625 8.80375 11.4325 8.1875 10.625 C6.08914751 7.85425677 6.08914751 7.85425677 3 6 C3 5.34 3 4.68 3 4 C2.01 3.67 1.02 3.34 0 3 C0 2.01 0 1.02 0 0 Z " fill="#4EB58C" transform="translate(629,236)"/>
<path d="M0 0 C0.33 0.66 0.66 1.32 1 2 C-0.75 4.5 -0.75 4.5 -3 7 C-4.32 7 -5.64 7 -7 7 C-7 7.66 -7 8.32 -7 9 C-8.32 8.67 -9.64 8.34 -11 8 C-10.28972656 7.50628906 -9.57945312 7.01257813 -8.84765625 6.50390625 C-7.92855469 5.86324219 -7.00945312 5.22257812 -6.0625 4.5625 C-5.14597656 3.92441406 -4.22945313 3.28632813 -3.28515625 2.62890625 C-1.13879294 1.1939118 -1.13879294 1.1939118 0 0 Z " fill="#D8F9FE" transform="translate(475,480)"/>
<path d="M0 0 C0.33 0 0.66 0 1 0 C1.21755666 5.4389165 1.10428384 9.87080814 -1 15 C-1.33 15 -1.66 15 -2 15 C-2.19392201 9.47322267 -1.7479503 5.24385089 0 0 Z " fill="#D24573" transform="translate(222,573)"/>
<path d="M0 0 C6.93 3.96 6.93 3.96 14 8 C11 9 11 9 8.125 7.8125 C5.13633384 6.07907363 2.55226413 4.32706435 0 2 C0 1.34 0 0.68 0 0 Z " fill="#D5FAFE" transform="translate(242,482)"/>
<path d="M0 0 C0.66 0.33 1.32 0.66 2 1 C0.625 3.5 0.625 3.5 -1 6 C-1.66 6 -2.32 6 -3 6 C-3.33 6.99 -3.66 7.98 -4 9 C-4.66 9 -5.32 9 -6 9 C-4.47291037 5.56404834 -2.40072955 2.88087546 0 0 Z " fill="#D13C6C" transform="translate(392,545)"/>
<path d="M0 0 C0.33 1.32 0.66 2.64 1 4 C0.01 5.485 0.01 5.485 -1 7 C-1.99 7 -2.98 7 -4 7 C-4.33 7.99 -4.66 8.98 -5 10 C-5.66 9.67 -6.32 9.34 -7 9 C-4.69 6.03 -2.38 3.06 0 0 Z " fill="#D3F7FD" transform="translate(484,470)"/>
<path d="M0 0 C0 0.33 0 0.66 0 1 C-5.48675196 2.86783046 -10.22192976 3.2358396 -16 3 C-10.42028161 0.16402743 -6.22522631 -0.10375377 0 0 Z " fill="#57B991" transform="translate(742,374)"/>
<path d="M0 0 C0.66 0 1.32 0 2 0 C2 0.66 2 1.32 2 2 C1.01 2.495 1.01 2.495 0 3 C-1.0409066 4.64142963 -2.04504326 6.30712215 -3 8 C-3.99 7.67 -4.98 7.34 -6 7 C-5.04882866 5.8274869 -4.08882991 4.66212985 -3.125 3.5 C-2.59132812 2.8503125 -2.05765625 2.200625 -1.5078125 1.53125 C-0.76144531 0.77328125 -0.76144531 0.77328125 0 0 Z " fill="#D23E6E" transform="translate(240,543)"/>
<path d="M0 0 C3.22430866 4.83646298 3.09242903 7.26939984 3 13 C0.89172945 9.83759418 0.66182535 8.49342531 0.375 4.8125 C0.30023437 3.91144531 0.22546875 3.01039063 0.1484375 2.08203125 C0.09945312 1.39496094 0.05046875 0.70789063 0 0 Z " fill="#56BA92" transform="translate(528,438)"/>
<path d="M0 0 C0.33 0 0.66 0 1 0 C1.36923077 6.4 1.36923077 6.4 -0.5 9.4375 C-0.995 9.953125 -1.49 10.46875 -2 11 C-3.13643966 7.59068103 -2.86747764 6.99664544 -1.5625 3.8125 C-1.13130859 2.73935547 -1.13130859 2.73935547 -0.69140625 1.64453125 C-0.46324219 1.10183594 -0.23507812 0.55914062 0 0 Z " fill="#D1F8FD" transform="translate(494,449)"/>
<path d="M0 0 C7.42857143 -0.28571429 7.42857143 -0.28571429 11 2 C11 2.66 11 3.32 11 4 C7.37 3.01 3.74 2.02 0 1 C0 0.67 0 0.34 0 0 Z " fill="#D5FAFE" transform="translate(449,221)"/>
<path d="M0 0 C0.66 0 1.32 0 2 0 C1.01 3.96 0.02 7.92 -1 12 C-1.33 12 -1.66 12 -2 12 C-2.28571429 3.42857143 -2.28571429 3.42857143 0 0 Z " fill="#FEE0EC" transform="translate(377,564)"/>
<path d="M0 0 C7.56634615 -0.37211538 7.56634615 -0.37211538 9.76171875 1.51171875 C10.17035156 2.00285156 10.57898438 2.49398438 11 3 C9.54077307 2.88590407 8.08259402 2.75834456 6.625 2.625 C5.40683594 2.52058594 5.40683594 2.52058594 4.1640625 2.4140625 C2 2 2 2 0 0 Z " fill="#D3F9FD" transform="translate(440,373)"/>
<path d="M0 0 C0.66 0.99 1.32 1.98 2 3 C1.01 3.33 0.02 3.66 -1 4 C-1.67156616 5.93618425 -1.67156616 5.93618425 -2 8 C-2.33 8.66 -2.66 9.32 -3 10 C-3.66 9.67 -4.32 9.34 -5 9 C-3.35 6.03 -1.7 3.06 0 0 Z " fill="#4FB68C" transform="translate(538,247)"/>
<path d="M0 0 C1.32 0.33 2.64 0.66 4 1 C1.03 2.65 -1.94 4.3 -5 6 C-4.67 4.68 -4.34 3.36 -4 2 C-2.68 2 -1.36 2 0 2 C0 1.34 0 0.68 0 0 Z " fill="#FCF2D0" transform="translate(556,535)"/>
<path d="M0 0 C0.33 0 0.66 0 1 0 C1.29296875 6.0546875 1.29296875 6.0546875 1 8 C0.01 8.66 -0.98 9.32 -2 10 C-1.54177532 6.53058454 -1.10868317 3.32604951 0 0 Z " fill="#CFF5E6" transform="translate(648,448)"/>
<path d="M0 0 C0.33 0.66 0.66 1.32 1 2 C0.0625 4.125 0.0625 4.125 -1 6 C-1.66 6 -2.32 6 -3 6 C-3.66 7.32 -4.32 8.64 -5 10 C-5 6.60406522 -4.47834052 5.93380119 -2.5 3.3125 C-2.0359375 2.68988281 -1.571875 2.06726563 -1.09375 1.42578125 C-0.7328125 0.95527344 -0.371875 0.48476563 0 0 Z " fill="#57B890" transform="translate(697,394)"/>
<path d="M0 0 C0 0.66 0 1.32 0 2 C-4.46236469 3.80619523 -7.31034294 4.11658501 -12 3 C-12 2.67 -12 2.34 -12 2 C-10.37548581 1.66430703 -8.75037083 1.3315204 -7.125 1 C-6.22007812 0.814375 -5.31515625 0.62875 -4.3828125 0.4375 C-2 0 -2 0 0 0 Z " fill="#FDCEE1" transform="translate(300,647)"/>
<path d="M0 0 C0.66 0.33 1.32 0.66 2 1 C-1.32307692 4.93846154 -1.32307692 4.93846154 -4.75 5.25 C-5.4925 5.1675 -6.235 5.085 -7 5 C-4.702779 3.25728062 -2.40133271 1.60088848 0 0 Z " fill="#FDF2D0" transform="translate(775,640)"/>
<path d="M0 0 C2.18975773 3.28463659 2.99806563 6.20696275 4 10 C3.01 10 2.02 10 1 10 C0.67 6.7 0.34 3.4 0 0 Z " fill="#D7FAFE" transform="translate(376,298)"/>
</svg>
